<?xml version="1.0" encoding="UTF-8" standalone="no"?>
<!-- Created with Inkscape (http://www.inkscape.org/) -->

<svg
   width="200.875mm"
   height="200.875mm"
   viewBox="0 0 200.875 200.875"
   version="1.1"
   id="svg2172"
   xmlns="http://www.w3.org/2000/svg"
   xmlns:svg="http://www.w3.org/2000/svg">
  <defs
     id="defs2169" />
  <ellipse
     style="fill:#ffffff;stroke-width:0.580185"
     id="path1"
     cx="100.31517"
     cy="100.43749"
     rx="99.825821"
     ry="100.19283" />
  <g
     id="layer1"
     transform="translate(1.6835022,-9.9585037)">
    <path
       class="st2"
       d="m 47.978669,94.085835 h 33.49625 v -33.49625 h 33.496241 v 33.50945 h 33.49625 v 33.496255 h -33.49625 v 33.5095 H 81.474919 v -33.5095 h -33.49625 z"
       id="path76"
       style="fill:#e20613;stroke-width:1.32291" />
    <g
       id="g98"
       transform="matrix(1.3229166,0,0,1.3229166,-429.7133,3.9422751)">
      <path
         class="st1"
         d="m 348.41,84.41 1.64,8.26 c 0.54,2.74 -1.02,4.85 -3.34,5.31 -1.8,0.36 -3.29,-0.1 -4.31,-1.66 l -0.05,0.01 c -0.09,1.74 -1.61,2.53 -3.13,2.94 -0.95,0.26 -2.75,0.59 -3.5,1.36 l -0.66,-3.37 c 0.88,-0.59 2.37,-0.84 3.55,-1.25 1.56,-0.56 2.15,-1.32 1.81,-3.01 l -0.67,-3.37 -5.98,1.19 -0.67,-3.37 z m -6.25,4.74 0.73,3.69 c 0.29,1.51 1.1,2.19 2.64,1.88 1.48,-0.3 1.96,-1.23 1.66,-2.73 l -0.73,-3.69 z"
         id="path78"
         style="fill:#1d1d1b" />
      <path
         class="st1"
         d="m 355.05,104.55 c 2.3,4.24 0.48,8.47 -3.59,10.67 -3.96,2.15 -8.48,1.36 -10.78,-2.89 -2.3,-4.25 -0.48,-8.45 3.48,-10.6 4.07,-2.2 8.6,-1.42 10.89,2.82 z m -11.83,6.41 c 1.47,2.71 4.32,2.48 6.61,1.24 2.4,-1.3 4.16,-3.56 2.69,-6.27 -1.46,-2.71 -4.33,-2.48 -6.72,-1.18 -2.29,1.24 -4.05,3.5 -2.58,6.21 z"
         id="path80"
         style="fill:#1d1d1b" />
      <path
         class="st1"
         d="m 359.93,116.96 -3.29,-3.33 2.06,-2.02 8.97,9.1 -2.05,2.02 -3.28,-3.32 -9.06,8.93 -2.41,-2.45 z"
         id="path82"
         style="fill:#1d1d1b" />
      <path
         class="st1"
         d="m 369.25,121.79 10.12,5.81 -1.43,2.49 -7.15,-4.09 -1.66,2.9 6.55,3.75 -1.32,2.31 -6.56,-3.76 -1.9,3.31 7.3,4.18 -1.43,2.5 -10.27,-5.89 z"
         id="path84"
         style="fill:#1d1d1b" />
      <path
         class="st1"
         d="m 381.02,138.97 c -0.51,2.01 0.86,3.2 2.64,3.64 1.16,0.3 3.03,0.39 3.42,-1.15 0.41,-1.63 -1.79,-2.47 -3.86,-3.63 -2.1,-1.16 -4.14,-2.59 -3.43,-5.44 0.79,-3.1 4.08,-3.83 6.81,-3.15 3.16,0.79 5.71,2.91 4.83,6.39 l -3.22,-0.81 c 0.35,-1.86 -0.82,-2.63 -2.42,-3.04 -1.06,-0.26 -2.39,-0.13 -2.71,1.14 -0.3,1.16 0.39,1.5 3.93,3.43 1.03,0.55 4.24,2.1 3.38,5.53 -0.7,2.77 -3.41,4.31 -7.52,3.26 -3.34,-0.84 -6.06,-3.28 -5.08,-7.01 z"
         id="path86"
         style="fill:#1d1d1b" />
      <path
         class="st1"
         d="m 402.79,131.45 3.36,-0.68 1.27,6.34 4.7,-7.54 4.2,-0.83 -4.76,7.23 8.4,7.95 -4.22,0.84 -5.98,-5.95 -1.54,2.33 0.99,4.93 -3.36,0.67 z"
         id="path88"
         style="fill:#1d1d1b" />
      <path
         class="st1"
         d="m 417.59,128.11 7.38,-4.03 c 2.45,-1.33 4.94,-0.48 6.07,1.59 0.88,1.61 0.89,3.17 -0.29,4.61 l 0.02,0.04 c 1.69,-0.43 2.9,0.79 3.74,2.11 0.53,0.85 1.39,2.45 2.34,2.93 l -3.01,1.64 c -0.83,-0.66 -1.52,-2.01 -2.27,-3.01 -1,-1.33 -1.9,-1.66 -3.42,-0.83 l -3,1.65 2.92,5.35 -3.01,1.64 z m 6.39,4.55 3.3,-1.81 c 1.34,-0.73 1.76,-1.7 1,-3.08 -0.72,-1.33 -1.76,-1.5 -3.11,-0.76 l -3.3,1.8 z"
         id="path90"
         style="fill:#1d1d1b" />
      <path
         class="st1"
         d="m 430.62,120.47 8.28,-8.22 2.03,2.04 -5.85,5.81 2.36,2.38 5.37,-5.32 1.87,1.89 -5.36,5.33 2.69,2.71 5.97,-5.92 2.03,2.04 -8.39,8.35 z"
         id="path92"
         style="fill:#1d1d1b" />
      <path
         class="st1"
         d="m 455.1,103.54 c 3.7,2.01 4.33,5.18 2.34,8.85 -2,3.68 -4.95,4.87 -8.67,2.85 l -8.53,-4.63 1.63,-3.01 8.53,4.62 c 1.5,0.82 3.19,1.24 4.51,-1.21 1.16,-2.16 0.6,-3.35 -1.44,-4.45 l -8.53,-4.63 1.64,-3 z"
         id="path94"
         style="fill:#1d1d1b" />
      <path
         class="st1"
         d="m 459.73,100.03 -8.12,-10.21 -1.55,7.56 -2.82,-0.58 2.46,-12.02 2.66,0.54 8.12,10.21 1.72,-8.42 2.82,0.58 -2.64,12.88 z"
         id="path96"
         style="fill:#1d1d1b" />
    </g>
    <g
       id="g118"
       transform="matrix(1.3229166,0,0,1.3229166,-429.7133,3.9422751)">
      <path
         class="st1"
         d="m 335.81,59.01 2.96,-6.36 c 1.77,-3.81 5.49,-5.56 10.38,-3.3 4.27,1.99 6.43,5.65 4.34,10.14 l -2.95,6.36 z m 13.51,2.33 1.34,-2.89 c 0.88,-1.87 0.55,-4.21 -2.71,-5.71 -2.97,-1.39 -5.34,-1.24 -6.84,1.98 l -1.07,2.31 z"
         id="path100"
         style="fill:#1d1d1b" />
      <path
         class="st1"
         d="m 345.44,40.98 8.06,-9.08 2.24,2 -5.69,6.41 2.6,2.31 5.23,-5.88 2.07,1.84 -5.22,5.88 2.98,2.65 5.81,-6.55 2.25,1.99 -8.18,9.21 z"
         id="path102"
         style="fill:#1d1d1b" />
      <path
         class="st1"
         d="m 375.25,29.15 c 2.31,3.73 1.23,6.92 -2.45,9.2 -3.71,2.3 -6.99,1.85 -9.32,-1.9 l -5.32,-8.59 3.04,-1.88 5.32,8.58 c 0.94,1.51 2.25,2.75 4.7,1.24 2.16,-1.34 2.28,-2.73 1,-4.77 l -5.32,-8.59 3.03,-1.87 z"
         id="path104"
         style="fill:#1d1d1b" />
      <path
         class="st1"
         d="m 379.38,20.35 -4.67,1.37 -0.85,-2.88 12.76,-3.76 0.85,2.88 -4.67,1.38 3.74,12.7 -3.42,1 z"
         id="path106"
         style="fill:#1d1d1b" />
      <path
         class="st1"
         d="m 394.33,25.2 c 0.05,2.16 1.76,2.97 3.66,2.92 1.25,-0.03 3.15,-0.44 3.11,-2.1 -0.04,-1.75 -2.48,-1.99 -4.89,-2.57 -2.42,-0.58 -4.88,-1.45 -4.96,-4.5 -0.08,-3.32 3.02,-4.98 5.96,-5.06 3.39,-0.08 6.54,1.31 6.63,5.07 l -3.46,0.09 c -0.15,-1.96 -1.56,-2.42 -3.26,-2.38 -1.14,0.03 -2.45,0.54 -2.41,1.91 0.02,1.25 0.8,1.39 4.9,2.33 1.19,0.27 4.84,0.93 4.93,4.62 0.07,2.96 -2.21,5.26 -6.63,5.36 -3.59,0.09 -7,-1.6 -7.05,-5.6 z"
         id="path108"
         style="fill:#1d1d1b" />
      <path
         class="st1"
         d="m 419.01,22.91 c 0.21,-1.62 -0.97,-3.2 -2.68,-3.68 -3.09,-0.84 -4.97,1.48 -5.72,4.23 -0.72,2.61 -0.27,5.56 2.82,6.4 2.11,0.57 3.69,-0.55 4.51,-2.54 l 3.34,0.91 c -1.43,3.81 -4.8,5.58 -8.65,4.52 -4.85,-1.32 -6.71,-5.71 -5.48,-10.24 1.27,-4.65 5.1,-7.48 9.96,-6.16 3.44,0.94 5.79,3.75 5.22,7.49 z"
         id="path110"
         style="fill:#1d1d1b" />
      <path
         class="st1"
         d="m 429.77,21.35 2.98,1.95 -3.42,5.22 5.5,3.6 3.42,-5.22 2.98,1.97 -8.9,13.58 -2.99,-1.96 3.84,-5.86 -5.5,-3.6 -3.84,5.85 -2.99,-1.95 z"
         id="path112"
         style="fill:#1d1d1b" />
      <path
         class="st1"
         d="m 447.27,34.55 7.62,9.46 -2.33,1.89 -5.38,-6.68 -2.71,2.18 4.94,6.13 -2.16,1.74 -4.94,-6.13 -3.1,2.5 5.49,6.81 -2.34,1.89 -7.73,-9.6 z"
         id="path114"
         style="fill:#1d1d1b" />
      <path
         class="st1"
         d="m 448.89,55.64 c -1.98,0.85 -2.09,2.72 -1.33,4.48 0.49,1.15 1.59,2.76 3.11,2.11 1.6,-0.7 0.92,-3.05 0.55,-5.49 -0.37,-2.47 -0.48,-5.07 2.32,-6.28 3.05,-1.31 5.75,0.93 6.91,3.63 1.35,3.11 1.22,6.56 -2.22,8.05 l -1.37,-3.18 c 1.75,-0.88 1.66,-2.35 0.98,-3.92 -0.45,-1.04 -1.41,-2.06 -2.66,-1.52 -1.15,0.5 -0.99,1.27 -0.34,5.42 0.2,1.2 0.95,4.84 -2.43,6.3 -2.73,1.18 -5.71,-0.09 -7.46,-4.14 -1.42,-3.3 -1.13,-7.09 2.56,-8.64 z"
         id="path116"
         style="fill:#1d1d1b" />
    </g>
    <circle
       style="opacity:1;fill:#000000;fill-opacity:0;stroke:#000000;stroke-width:0.875;stroke-dasharray:none;stroke-opacity:1"
       id="path4191"
       cy="110.396"
       cx="98.753998"
       r="100" />
  </g>
</svg>
