<svg width="272" height="143" viewBox="0 0 272 143" xmlns="http://www.w3.org/2000/svg" xmlns:xlink="http://www.w3.org/1999/xlink">
    <defs>
        <path id="tajq5rqcra" d="M0 0h146.356v16.07H0z"/>
    </defs>
    <g fill="none" fill-rule="evenodd">
        <g fill="#000">
            <path d="M95.306 57 110 42h-8.304L87 57zM46.458 90 109 28h-8.458L38 90zM14.409 105 104 15h-8.409L6 105zM94.556 0 2 92h8.444L103 0zM59.623 17 0 76.973V77h8.35L68 17zM11.439 57 64 5h-8.439L3 57zM15.757 27 1 42h8.241L24 27zM67.506 85 88 65h-8.506L59 85zM76.777 0 67 10h8.222L85 0z"/>
        </g>
        <path d="M260.32 121.738h3.034v-7.776h.035l4.3 7.776H271v-12.476h-3.033v7.687h-.035l-4.3-7.687h-3.313v12.476zm-11.843 0h10.04v-2.797H251.7v-2.376h6.069v-2.514h-6.069v-2.185h6.641v-2.604h-9.865v12.476zm-10.593 0h8.998v-2.797h-5.773v-9.679h-3.225v12.476zm-7.23-9.016h.034l1.37 4.368h-2.81l1.406-4.368zm-6.243 9.016h3.31l.782-2.237h4.317l.764 2.237h3.362l-4.63-12.476h-3.276l-4.63 12.476zm-8.375 0h3.225v-4.806h5.098v-2.515h-5.098v-2.551h5.896v-2.604h-9.12v12.476zm-1.422-12.476h-10.612v2.797h3.694v9.679h3.225v-9.68h3.693v-2.796zm-22.089 8.283c0 .802.148 1.485.442 2.044.295.56.691 1.019 1.187 1.38a4.95 4.95 0 0 0 1.709.786c.641.164 1.32.245 2.036.245.683 0 1.347-.07 1.994-.21a5.237 5.237 0 0 0 1.727-.69 3.64 3.64 0 0 0 1.213-1.285c.306-.534.46-1.2.46-1.99 0-.56-.104-1.042-.313-1.443a3.194 3.194 0 0 0-.815-1.012 4.664 4.664 0 0 0-1.144-.683c-.427-.18-.867-.333-1.317-.463a22.33 22.33 0 0 0-1.319-.331 10.431 10.431 0 0 1-1.152-.315 2.878 2.878 0 0 1-.815-.403.705.705 0 0 1-.304-.592c0-.21.05-.382.147-.517.098-.133.222-.24.373-.322.15-.083.318-.14.503-.175.184-.035.364-.052.538-.052.241 0 .484.025.728.079.243.052.459.137.65.252.192.116.343.27.46.463.114.193.166.428.155.708h3.226c0-.698-.145-1.302-.434-1.809a3.85 3.85 0 0 0-1.127-1.25 4.903 4.903 0 0 0-1.587-.723 7.021 7.021 0 0 0-1.812-.237c-.578 0-1.168.07-1.769.21-.6.14-1.144.36-1.628.664a3.71 3.71 0 0 0-1.189 1.18c-.306.482-.46 1.062-.46 1.737 0 .571.108 1.057.322 1.46.213.401.49.739.831 1.013.343.274.73.497 1.164.673.432.175.868.326 1.309.455.45.127.886.241 1.309.34.42.1.8.211 1.134.34.335.13.605.28.806.454a.86.86 0 0 1 .304.683c0 .233-.057.43-.174.594a1.274 1.274 0 0 1-.45.393 2.274 2.274 0 0 1-.633.218c-.237.046-.476.07-.72.07-.692 0-1.247-.14-1.664-.42-.416-.279-.642-.786-.676-1.519h-3.225zm-11.167 4.193h10.04v-2.797h-6.815v-2.376h6.069v-2.514h-6.069v-2.185h6.64v-2.604h-9.865v12.476zm-1.11-12.476h-3.224l-1.751 9.12h-.035l-1.82-9.12h-3.035l-1.82 9.12h-.035l-1.75-9.12h-3.227l3.347 12.476h3.276l1.7-8.598h.034l1.7 8.598h3.224l3.416-12.476zm-22.921 8.981h5.393v-2.516h-5.393v2.516zm-12.606 3.495h3.035v-7.776h.035l4.3 7.776h3.31v-12.476h-3.033v7.687h-.034l-4.3-7.687h-3.313v12.476zm-5.426 0h3.225v-12.476h-3.225v12.476zm-11.879 0h10.04v-2.797h-6.813v-2.376h6.069v-2.514h-6.069v-2.185h6.64v-2.604h-9.867v12.476zm-12.881 0h3.224V116.6h4.25v5.138h3.224v-12.476h-3.225v4.544h-4.249v-4.544h-3.224v12.476zm-12.484 0h3.225v-4.544h2.446c.38 0 .683.073.909.22.226.145.402.34.53.584.126.245.212.52.258.822.046.303.082.611.105.926.012.094.023.227.035.403.011.173.029.362.052.567.023.204.057.399.103.584.048.187.105.334.174.438h3.19c-.103-.116-.191-.303-.26-.56a5.787 5.787 0 0 1-.155-.821 10.34 10.34 0 0 1-.07-.839 14.231 14.231 0 0 0-.035-.594 6.959 6.959 0 0 0-.138-.916 3.97 3.97 0 0 0-.312-.9 2.63 2.63 0 0 0-.538-.733 1.784 1.784 0 0 0-.815-.438v-.035c.658-.256 1.146-.673 1.466-1.25a3.831 3.831 0 0 0 .476-1.878c0-.629-.124-1.165-.373-1.606a3.312 3.312 0 0 0-.98-1.094 4.042 4.042 0 0 0-1.387-.619 6.584 6.584 0 0 0-1.594-.193h-6.312v12.476zm3.225-9.872h2.566c.45 0 .835.108 1.152.324.318.214.479.555.479 1.022 0 .476-.128.84-.383 1.091s-.624.376-1.11.376h-2.704v-2.813zm-16.386 9.872h5.324c.936 0 1.78-.137 2.532-.411a5.138 5.138 0 0 0 1.916-1.205c.524-.53.926-1.186 1.204-1.965.277-.782.417-1.684.417-2.71 0-.966-.14-1.83-.417-2.594a5.397 5.397 0 0 0-1.197-1.948 5.068 5.068 0 0 0-1.906-1.222c-.752-.28-1.602-.42-2.549-.42H88.89v12.475zm3.227-9.68h1.525c1.11 0 1.956.276 2.54.83.583.553.876 1.4.876 2.542 0 .628-.065 1.162-.191 1.598-.129.438-.328.797-.597 1.076a2.479 2.479 0 0 1-1.059.62c-.434.134-.957.206-1.57.217h-1.524v-6.882zm-15.745 9.68h3.225v-4.544h2.445c.381 0 .686.073.911.22.224.145.4.34.529.584.126.245.214.52.26.822a12 12 0 0 1 .103.926c.012.094.023.227.035.403.011.173.028.362.051.567.023.204.058.399.106.584.046.187.103.334.172.438h3.19c-.103-.116-.19-.303-.258-.56a5.527 5.527 0 0 1-.157-.821c-.035-.291-.058-.57-.069-.839a18.666 18.666 0 0 0-.034-.594 7.312 7.312 0 0 0-.14-.916 3.792 3.792 0 0 0-.312-.9 2.557 2.557 0 0 0-.538-.733 1.784 1.784 0 0 0-.815-.438v-.035c.66-.256 1.148-.673 1.466-1.25a3.831 3.831 0 0 0 .476-1.878c0-.629-.124-1.165-.373-1.606a3.291 3.291 0 0 0-.98-1.094 4.049 4.049 0 0 0-1.385-.619 6.6 6.6 0 0 0-1.596-.193h-6.312v12.476zm3.225-9.872h2.566c.452 0 .836.108 1.154.324.318.214.477.555.477 1.022 0 .476-.129.84-.381 1.091-.255.251-.626.376-1.11.376h-2.706v-2.813zm-16.775 6.177a6.1 6.1 0 0 0 1.187 2.061 5.522 5.522 0 0 0 1.918 1.389c.755.337 1.62.507 2.59.507.971 0 1.836-.17 2.594-.507a5.533 5.533 0 0 0 1.916-1.389 6.1 6.1 0 0 0 1.186-2.061 7.731 7.731 0 0 0 .408-2.542c0-.91-.136-1.757-.408-2.544a6.1 6.1 0 0 0-1.186-2.061 5.533 5.533 0 0 0-1.916-1.389c-.758-.337-1.623-.507-2.593-.507s-1.836.17-2.591.507c-.758.338-1.398.8-1.918 1.389a6.1 6.1 0 0 0-1.187 2.061 7.735 7.735 0 0 0-.407 2.544c0 .908.136 1.755.407 2.542zm2.974-3.905c.104-.444.27-.84.502-1.188.231-.35.53-.63.894-.84.363-.21.805-.314 1.326-.314.52 0 .962.104 1.326.315.364.21.662.49.894.839.231.349.398.744.503 1.188.103.443.155.896.155 1.363 0 .465-.052.92-.155 1.361a3.65 3.65 0 0 1-.503 1.188 2.63 2.63 0 0 1-.894.84c-.364.21-.806.314-1.326.314s-.963-.104-1.326-.315a2.63 2.63 0 0 1-.894-.839 3.606 3.606 0 0 1-.502-1.188 5.86 5.86 0 0 1-.157-1.361c0-.467.052-.92.157-1.363zM50 121.738h3.033v-7.776h.037l4.298 7.776h3.313v-12.476h-3.035v7.687h-.035l-4.3-7.687H50v12.476zM261.224 104.631H272v-2.773h-6.756l6.53-7.102V92.26h-10.169v2.773h5.99l-6.371 6.965v2.633zm-1.046-12.37h-10.655v2.772h3.708v9.598h3.238v-9.598h3.71V92.26zm-12.328 0h-3.238v7.45c0 .797-.163 1.398-.487 1.801-.326.406-.888.606-1.69.606-.8 0-1.364-.2-1.688-.606-.326-.403-.487-1.004-.487-1.801v-7.45h-3.24v7.259c0 1.791.434 3.134 1.299 4.029.863.895 2.236 1.342 4.116 1.342 1.882 0 3.253-.447 4.119-1.342.865-.895 1.296-2.238 1.296-4.03V92.26zm-23.992 12.37h3.238v-5.094h4.266v5.094h3.24v-12.37h-3.24v4.505h-4.266V92.26h-3.238v12.371zm-2.003-7.953c-.023-.738-.205-1.4-.548-1.983a4.92 4.92 0 0 0-1.314-1.473 5.967 5.967 0 0 0-1.803-.91 6.767 6.767 0 0 0-2.01-.312c-.94 0-1.794.168-2.56.503a5.797 5.797 0 0 0-1.96 1.377 6.163 6.163 0 0 0-1.245 2.044c-.29.78-.433 1.62-.433 2.52 0 .903.144 1.743.433 2.523a6.163 6.163 0 0 0 1.245 2.045 5.797 5.797 0 0 0 1.96 1.377c.766.334 1.62.502 2.56.502.788 0 1.52-.112 2.194-.338a5.172 5.172 0 0 0 1.759-.987 4.906 4.906 0 0 0 1.2-1.595c.302-.629.476-1.342.522-2.14h-3.238c-.06.717-.299 1.278-.723 1.681-.424.406-1.018.606-1.784.606-.523 0-.966-.103-1.333-.311a2.626 2.626 0 0 1-.896-.832 3.559 3.559 0 0 1-.504-1.178 5.756 5.756 0 0 1-.157-1.352c0-.461.051-.91.157-1.35.104-.44.272-.832.504-1.178.233-.347.532-.624.896-.832.367-.209.81-.312 1.333-.312.685 0 1.251.163 1.698.484.447.325.715.797.81 1.42h3.237zm-24.132 3.796c0 .795.147 1.472.445 2.027.295.555.692 1.01 1.193 1.367a4.98 4.98 0 0 0 1.715.78 8.32 8.32 0 0 0 2.044.243c.685 0 1.353-.068 2.003-.208a5.234 5.234 0 0 0 1.732-.685 3.62 3.62 0 0 0 1.22-1.273c.307-.53.46-1.19.46-1.976 0-.552-.103-1.03-.312-1.428a3.153 3.153 0 0 0-.82-1.004 4.697 4.697 0 0 0-1.148-.677c-.43-.178-.871-.331-1.324-.46a22.256 22.256 0 0 0-1.323-.328c-.43-.092-.816-.197-1.157-.312a2.992 2.992 0 0 1-.819-.398.702.702 0 0 1-.305-.589c0-.208.05-.378.148-.512.1-.132.224-.24.376-.32.15-.082.318-.14.504-.174.186-.034.365-.051.54-.051.243 0 .486.026.73.078.245.052.462.136.654.25.192.115.345.268.46.46.117.19.17.424.158.701h3.238c0-.692-.144-1.29-.434-1.793a3.84 3.84 0 0 0-1.134-1.238 4.915 4.915 0 0 0-1.592-.72 7.233 7.233 0 0 0-1.82-.234c-.58 0-1.172.069-1.776.208a5.385 5.385 0 0 0-1.636.658c-.488.3-.885.69-1.194 1.17-.306.479-.46 1.054-.46 1.724 0 .566.108 1.048.322 1.447.215.398.493.733.837 1.004.341.272.73.494 1.166.668.435.174.873.323 1.314.451.453.126.89.24 1.314.337.424.1.804.212 1.141.338.336.127.606.278.81.45a.85.85 0 0 1 .305.677.978.978 0 0 1-.175.589c-.115.162-.267.29-.453.39-.186.097-.397.17-.635.216-.237.046-.48.069-.723.069-.696 0-1.252-.138-1.67-.415-.419-.277-.645-.78-.68-1.507h-3.24zm-12.535 4.157h3.046v-7.71h.034l4.32 7.71h3.324v-12.37h-3.046v7.624h-.035l-4.32-7.625h-3.323v12.371zm-12.206 0h10.08v-2.773h-6.842v-2.356h6.094V97.01h-6.094v-2.167h6.67V92.26h-9.908v12.371zm-13.25 0h3.237v-5.094h4.266v5.094h3.238v-12.37h-3.238v4.505h-4.266V92.26h-3.237v12.371zm-12.206 0h3.238v-4.123h2.664c.685 0 1.303-.078 1.855-.235a3.642 3.642 0 0 0 1.418-.744c.395-.34.698-.782.905-1.325.21-.543.315-1.195.315-1.958 0-.73-.125-1.347-.374-1.854a3.43 3.43 0 0 0-1.002-1.239 3.98 3.98 0 0 0-1.436-.684 6.686 6.686 0 0 0-1.68-.209h-5.903v12.371zm3.238-9.79h2.177c.499 0 .913.125 1.245.374.33.248.495.667.495 1.256 0 .566-.161.964-.487 1.195-.324.232-.743.347-1.253.347h-2.177v-3.171zm-17.158 6.126c.272.779.67 1.461 1.191 2.045a5.558 5.558 0 0 0 1.924 1.377c.762.334 1.629.502 2.603.502.976 0 1.843-.168 2.603-.502a5.548 5.548 0 0 0 1.926-1.377 6.007 6.007 0 0 0 1.191-2.045c.272-.78.41-1.62.41-2.522 0-.901-.138-1.74-.41-2.52a6.007 6.007 0 0 0-1.191-2.045 5.548 5.548 0 0 0-1.926-1.377c-.76-.335-1.627-.503-2.603-.503-.974 0-1.841.168-2.603.503-.76.335-1.4.794-1.924 1.377a6.007 6.007 0 0 0-1.19 2.044c-.275.78-.411 1.62-.411 2.52 0 .903.136 1.743.41 2.523zm2.985-3.872c.105-.44.272-.832.506-1.178.232-.347.53-.624.896-.832.366-.209.81-.312 1.331-.312.524 0 .967.103 1.333.312.365.208.664.485.896.832.232.346.4.738.506 1.178.104.44.156.889.156 1.35 0 .463-.052.914-.156 1.352-.105.44-.274.832-.506 1.178a2.626 2.626 0 0 1-.896.832c-.366.208-.81.311-1.333.311-.522 0-.965-.103-1.331-.311a2.609 2.609 0 0 1-.896-.832 3.562 3.562 0 0 1-.506-1.178 5.858 5.858 0 0 1-.156-1.352c0-.461.052-.91.156-1.35zm-15.81 7.536h3.24v-4.505h2.455c.382 0 .687.072.913.218.227.143.403.336.532.58.128.242.214.514.26.814.047.3.081.606.106.918.011.094.023.226.035.4.011.172.028.36.051.562.023.203.058.396.104.58.048.185.105.33.174.433h3.204c-.104-.114-.19-.3-.261-.554a5.684 5.684 0 0 1-.155-.815c-.037-.289-.06-.566-.071-.832-.012-.264-.023-.46-.035-.589a6.832 6.832 0 0 0-.138-.908 3.823 3.823 0 0 0-.315-.893 2.538 2.538 0 0 0-.539-.727 1.8 1.8 0 0 0-.819-.434v-.035c.662-.254 1.153-.667 1.472-1.239.318-.572.48-1.191.48-1.862 0-.624-.126-1.156-.375-1.593a3.304 3.304 0 0 0-.984-1.085 4.137 4.137 0 0 0-1.393-.614 6.714 6.714 0 0 0-1.603-.19h-6.338v12.37zm3.24-9.79h2.576c.453 0 .838.108 1.159.322.318.212.477.55.477 1.014 0 .472-.126.833-.381 1.082-.256.249-.628.373-1.115.373h-2.716v-2.79zm-4.98-2.58h-10.655v2.772h3.708v9.598h3.238v-9.598h3.71V92.26zm-22.496 8.213c0 .795.148 1.472.443 2.027.298.555.695 1.01 1.193 1.367.499.36 1.073.618 1.715.78a8.346 8.346 0 0 0 2.047.243c.685 0 1.352-.068 2.002-.208a5.234 5.234 0 0 0 1.733-.685 3.614 3.614 0 0 0 1.218-1.273c.308-.53.462-1.19.462-1.976 0-.552-.106-1.03-.313-1.428a3.18 3.18 0 0 0-.819-1.004 4.733 4.733 0 0 0-1.149-.677c-.43-.178-.87-.331-1.323-.46a22.256 22.256 0 0 0-1.324-.328c-.43-.092-.815-.197-1.159-.312a3.005 3.005 0 0 1-.817-.398.702.702 0 0 1-.305-.589c0-.208.05-.378.148-.512a1.12 1.12 0 0 1 .374-.32c.152-.082.32-.14.507-.174.184-.034.364-.051.539-.051.243 0 .487.026.73.078.244.052.463.136.654.25.19.115.346.268.46.46.118.19.17.424.158.701h3.238c0-.692-.146-1.29-.435-1.793a3.813 3.813 0 0 0-1.132-1.238 4.934 4.934 0 0 0-1.592-.72 7.233 7.233 0 0 0-1.82-.234c-.582 0-1.173.069-1.777.208a5.385 5.385 0 0 0-1.636.658c-.487.3-.886.69-1.193 1.17-.307.479-.46 1.054-.46 1.724 0 .566.107 1.048.322 1.447.213.398.493.733.834 1.004.344.272.733.494 1.168.668.434.174.873.323 1.314.451.453.126.89.24 1.314.337.424.1.804.212 1.142.338.335.127.606.278.809.45a.85.85 0 0 1 .305.677c0 .231-.06.426-.175.589-.117.162-.266.29-.452.39-.186.097-.4.17-.635.216-.24.046-.48.069-.723.069-.697 0-1.255-.138-1.673-.415-.416-.277-.643-.78-.679-1.507h-3.238zm-6.86-4.783h.035l1.376 4.332h-2.822l1.412-4.332zm-6.268 8.94h3.326l.783-2.218h4.335l.767 2.218h3.378l-4.65-12.37h-3.291l-4.648 12.37zm1.132-12.37H73.893v2.772h3.708v9.598h3.238v-9.598h3.71V92.26zm-15.827 3.43h.035l1.375 4.332H67.31l1.412-4.332zm-6.268 8.94h3.326l.782-2.218h4.335l.768 2.218h3.377l-4.65-12.37h-3.289l-4.65 12.37zm-11.945 0h3.238v-3.811l1.323-1.387 3.344 5.198h4.022l-5.171-7.502 4.596-4.869h-4.023l-4.091 4.749V92.26h-3.238v12.371z" fill="#000"/>
        <g transform="translate(50 126.93)">
            <mask id="2ac7qhcsgb" fill="#fff">
                <use xlink:href="#tajq5rqcra"/>
            </mask>
            <path d="M133.97 12.49h1.3l3.157-11.178h.036l3.175 11.178h1.262L146.356 0h-1.193l-2.86 10.933h-.034L139.199 0h-1.492l-3.052 10.933h-.034L131.778 0h-1.281l3.474 12.49zm-14.106 0h1.194V6.944h4.526c.562-.023 1.004.07 1.326.281.32.21.566.486.736.83.17.344.28.738.334 1.182.052.444.09.88.113 1.312.012.128.021.279.027.455.006.174.02.352.044.532.023.181.054.357.096.525.04.169.096.312.167.429h1.316c-.129-.151-.232-.363-.307-.639a5.515 5.515 0 0 1-.167-.874 12.64 12.64 0 0 1-.07-.918c-.012-.304-.024-.56-.035-.77a6.09 6.09 0 0 0-.15-1.04 2.505 2.505 0 0 0-.368-.85 2.03 2.03 0 0 0-.658-.602c-.269-.16-.608-.266-1.017-.324v-.036c.806-.162 1.414-.535 1.824-1.119.409-.583.614-1.271.614-2.063 0-.56-.103-1.048-.307-1.461a2.835 2.835 0 0 0-.824-1.016 3.544 3.544 0 0 0-1.21-.585A5.467 5.467 0 0 0 125.601 0h-5.738v12.49zm1.194-11.475h4.455c.902 0 1.577.222 2.028.664.45.444.675 1.05.675 1.82a2.3 2.3 0 0 1-.219 1.024c-.147.296-.343.55-.588.761-.246.208-.532.369-.86.48-.328.11-.673.166-1.036.166h-4.455V1.015zm-13.65 11.475h1.193V1.924h.034l7.3 10.566h1.334V0h-1.193v10.566h-.036L108.74 0h-1.333v12.49zm-5.806 0h1.104V7.68c0-.466.081-.904.246-1.312.163-.409.395-.759.692-1.05.3-.29.653-.516 1.063-.673a3.294 3.294 0 0 1 1.368-.2V3.34c-.82-.034-1.523.147-2.114.543-.59.396-1.026.962-1.306 1.696h-.037V3.463h-1.016v9.027zM96.706 1.82H97.9V.07h-1.193v1.75zm-3.105 0h1.193V.07h-1.193v1.75zm5.825 1.643H98.32v4.741c0 .455-.052.9-.158 1.339a3.669 3.669 0 0 1-.49 1.163c-.223.338-.507.61-.852.812-.346.205-.752.306-1.218.306-.879 0-1.495-.208-1.852-.629-.356-.419-.546-1.036-.571-1.853V3.463h-1.105v5.86c0 .526.06 1 .176 1.427.117.426.302.786.553 1.084.251.298.58.524.982.683.403.156.892.235 1.465.235.678 0 1.295-.163 1.852-.49a3.202 3.202 0 0 0 1.271-1.4h.035v1.628h1.018V3.463zM82.794 12.49h1.193V6.542h6V5.53h-6V1.015h6.754V0h-7.947v12.49zM79.057.753h-1.106v2.71h-1.58v.928h1.58v6.175c-.012.769.128 1.3.422 1.591.291.293.807.438 1.544.438.163 0 .326-.006.49-.017a7.02 7.02 0 0 1 .492-.017v-.945a8.74 8.74 0 0 1-.948.052c-.397-.023-.646-.136-.746-.34-.1-.205-.148-.489-.148-.85V4.391H80.9v-.928h-1.842V.753zm-7.37 11.737h1.106V7.68a3.5 3.5 0 0 1 .245-1.312 3.01 3.01 0 0 1 1.755-1.723 3.298 3.298 0 0 1 1.37-.2V3.34c-.82-.034-1.525.147-2.116.543-.59.396-1.026.962-1.306 1.696h-.035V3.463h-1.018v9.027zM70.11 8.275a7.06 7.06 0 0 0-.176-1.863 4.713 4.713 0 0 0-.693-1.627 3.7 3.7 0 0 0-1.254-1.146c-.514-.292-1.134-.438-1.86-.438-.726 0-1.346.138-1.86.412a3.653 3.653 0 0 0-1.262 1.084c-.328.45-.571.96-.729 1.53a6.57 6.57 0 0 0-.238 1.75c0 .642.081 1.25.238 1.828.158.577.401 1.084.73 1.522a3.5 3.5 0 0 0 1.261 1.04c.514.257 1.134.385 1.86.385 1.146 0 2.032-.283 2.658-.847.625-.566 1.055-1.362 1.29-2.389h-1.106c-.175.689-.491 1.245-.948 1.672-.454.424-1.087.636-1.893.636-.528 0-.98-.109-1.36-.33a2.822 2.822 0 0 1-.92-.84 3.751 3.751 0 0 1-.528-1.138 4.613 4.613 0 0 1-.175-1.241h6.965zm-6.965-.928c.046-.407.142-.807.29-1.199.146-.39.341-.734.587-1.03.245-.299.545-.538.896-.718.349-.181.753-.271 1.21-.271.443 0 .842.09 1.193.271.351.18.648.42.894.718.245.296.435.638.57 1.023.134.384.207.786.22 1.206h-5.86zm-3.967 5.143h1.105V3.463h-1.105v9.027zm0-10.723h1.105V.017h-1.105v1.75zm-7.561 9.384a2.793 2.793 0 0 1-.928-.805 3.39 3.39 0 0 1-.545-1.145 5.045 5.045 0 0 1-.175-1.33c0-.466.054-.923.165-1.373.112-.447.29-.847.535-1.197.246-.35.557-.633.93-.849.375-.216.826-.323 1.353-.323.526 0 .973.11 1.34.333.37.221.67.512.904.874.234.361.405.765.51 1.206.104.444.158.888.158 1.33 0 .455-.062.898-.184 1.329a3.514 3.514 0 0 1-.553 1.145c-.245.333-.55.602-.913.805-.362.205-.784.306-1.262.306-.516 0-.961-.101-1.335-.306zm5.352-7.688h-1.105V5.02h-.035c-.222-.501-.59-.93-1.106-1.285A3.037 3.037 0 0 0 52.95 3.2c-.656 0-1.237.12-1.747.36a3.65 3.65 0 0 0-1.28.979 4.355 4.355 0 0 0-.79 1.452 5.591 5.591 0 0 0-.272 1.757c0 .643.076 1.245.228 1.811.151.566.395 1.058.729 1.478.333.42.755.75 1.271.99.514.238 1.134.357 1.861.357.654 0 1.233-.169 1.736-.507a3.227 3.227 0 0 0 1.141-1.346h.035v1.224c0 1.107-.228 1.952-.685 2.535-.456.584-1.199.874-2.227.874-.305 0-.604-.03-.896-.095a2.776 2.776 0 0 1-.798-.306 2.03 2.03 0 0 1-.614-.551 1.955 1.955 0 0 1-.343-.85h-1.105c.035.479.167.89.395 1.234.229.345.514.628.86.85.345.22.734.384 1.166.489.434.105.879.157 1.335.157.737 0 1.358-.1 1.868-.297.509-.198.921-.483 1.236-.858.316-.373.546-.826.694-1.364a6.943 6.943 0 0 0 .219-1.818V3.463zm-11.053 5.53c0 .443-.086.839-.255 1.189-.169.35-.397.646-.685.89a2.96 2.96 0 0 1-1.009.561 3.81 3.81 0 0 1-1.21.191c-.257 0-.508-.04-.754-.122-.245-.08-.462-.2-.65-.358a1.812 1.812 0 0 1-.447-.56 1.596 1.596 0 0 1-.167-.742c0-.444.132-.786.395-1.025.263-.237.6-.423 1.01-.55a8.05 8.05 0 0 1 1.36-.29c.496-.063.98-.135 1.447-.218.152-.023.326-.063.526-.122.2-.06.334-.151.403-.28h.036v1.435zm-4.79-2.766c.024-.735.26-1.268.71-1.599.451-.333 1.02-.5 1.711-.5.326 0 .635.028.921.08.286.053.539.148.754.288.217.14.387.329.51.568.123.24.184.545.184.918 0 .245-.032.444-.098.595a.765.765 0 0 1-.27.35 1.238 1.238 0 0 1-.449.183 4.87 4.87 0 0 1-.604.098c-.597.069-1.186.141-1.763.218a6.379 6.379 0 0 0-1.563.394 2.628 2.628 0 0 0-1.113.813c-.282.355-.422.849-.422 1.478 0 .455.079.849.238 1.18.157.333.374.608.648.822.275.216.597.377.965.482a4.3 4.3 0 0 0 1.186.157c.431 0 .811-.04 1.14-.123.327-.082.617-.2.868-.357.251-.159.48-.35.685-.578.203-.227.405-.487.604-.778h.035c0 .233.015.446.044.639.028.19.09.357.184.497a.91.91 0 0 0 .395.325c.169.075.395.113.675.113a3.419 3.419 0 0 0 .72-.07v-.926a.955.955 0 0 1-.352.068c-.431 0-.648-.22-.648-.663V6.104c0-.604-.1-1.097-.3-1.476a2.296 2.296 0 0 0-.77-.884 2.869 2.869 0 0 0-1.07-.428 6.303 6.303 0 0 0-1.194-.115c-1.041 0-1.897.24-2.57.718-.673.478-1.038 1.248-1.097 2.308h1.107zM32.58 11.15a2.819 2.819 0 0 1-.93-.805 3.386 3.386 0 0 1-.543-1.145 5.047 5.047 0 0 1-.177-1.33c0-.466.056-.923.167-1.373.112-.447.29-.847.536-1.197.245-.35.556-.633.93-.849.374-.216.825-.323 1.35-.323.528 0 .975.11 1.343.333.368.221.67.512.903.874.234.361.403.765.509 1.206.105.444.159.888.159 1.33 0 .455-.061.898-.184 1.329a3.514 3.514 0 0 1-.553 1.145c-.247.333-.55.602-.913.805-.362.205-.784.306-1.264.306-.514 0-.959-.101-1.333-.306zm5.352-7.688h-1.105V5.02h-.037c-.22-.501-.59-.93-1.104-1.285-.514-.356-1.105-.534-1.773-.534-.654 0-1.237.12-1.745.36a3.65 3.65 0 0 0-1.28.979c-.345.413-.61.897-.79 1.452a5.591 5.591 0 0 0-.272 1.757c0 .643.076 1.245.228 1.811.151.566.395 1.058.729 1.478.332.42.756.75 1.272.99.514.238 1.133.357 1.858.357.656 0 1.236-.169 1.738-.507a3.209 3.209 0 0 0 1.14-1.346h.036v1.224c0 1.107-.228 1.952-.685 2.535-.456.584-1.199.874-2.229.874-.303 0-.602-.03-.894-.095a2.755 2.755 0 0 1-.798-.306 2.03 2.03 0 0 1-.613-.551 1.955 1.955 0 0 1-.344-.85H30.16c.035.479.167.89.396 1.234.228.345.514.628.859.85.345.22.733.384 1.166.489.434.105.879.157 1.333.157.739 0 1.36-.1 1.87-.297.509-.198.921-.483 1.236-.858.316-.373.546-.826.694-1.364a6.943 6.943 0 0 0 .219-1.818V3.463zM20.755 12.49h1.106V7.225c.012-.444.08-.855.21-1.233a2.82 2.82 0 0 1 .561-.98c.246-.273.541-.49.887-.648.345-.157.74-.235 1.185-.235.443 0 .815.07 1.113.21.299.14.535.331.711.578.175.245.298.533.369.864.069.333.105.692.105 1.077v5.632h1.105V6.682c0-.536-.052-1.02-.157-1.452a2.575 2.575 0 0 0-.545-1.092c-.257-.298-.599-.527-1.026-.692-.428-.162-.956-.245-1.589-.245-.314 0-.625.044-.93.132-.303.086-.585.21-.842.367a2.79 2.79 0 0 0-.675.578 2.633 2.633 0 0 0-.447.742h-.035V3.463h-1.106v9.027zm-10.263 0h8.738v-1.014h-7.545V6.542h6.983V5.53h-6.983V1.015h7.456V0h-8.649v12.49zM8.106 7.803H6.263l.387-2.73h1.947v-.787H6.756L7.299.404h-.877l-.545 3.882H3.405L3.948.404H3.07l-.545 3.882H.491v.788h1.93l-.386 2.729H0v.786h1.93l-.543 3.9h.876l.543-3.9h2.475l-.543 3.9h.876l.545-3.9h1.947v-.786zm-2.334-2.73-.386 2.73H2.912l.387-2.73h2.473z" fill="#000" mask="url(#2ac7qhcsgb)"/>
        </g>
    </g>
</svg>
