<?xml version="1.0" encoding="UTF-8" standalone="no"?>
<!-- Created with Inkscape (http://www.inkscape.org/) -->
<svg
   xmlns:svg="http://www.w3.org/2000/svg"
   xmlns="http://www.w3.org/2000/svg"
   version="1.0"
   width="815.56537"
   height="784.52313"
   id="svg3835">
  <defs
     id="defs3837">
    <clipPath
       id="clipPath281">
      <path
         d="M 0,1683.975 L 1191,1683.975 L 1191,0.015 L 0,0.015 L 0,1683.975 z"
         id="path283" />
    </clipPath>
    <clipPath
       id="clipPath273">
      <path
         d="M 166.051,1451.449 L 1024.949,1451.449 L 1024.949,232.551 L 166.051,232.551 L 166.051,1451.449 z"
         id="path275" />
    </clipPath>
    <clipPath
       id="clipPath265">
      <path
         d="M 776.452,1384.682 L 793.96,1384.682 L 793.96,1368.103 L 776.452,1368.103 L 776.452,1384.682 z"
         id="path267" />
    </clipPath>
    <clipPath
       id="clipPath257">
      <path
         d="M 793.618,1444.689 L 778.045,1444.689 L 778.045,1368.572 L 793.618,1368.572 L 793.618,1444.689 z"
         id="path259" />
    </clipPath>
  </defs>
  <g
     transform="translate(57.782697,-140.10062)"
     id="layer1">
    <g
       transform="matrix(-15.67792,0,0,-15.67792,350.47034,140.10062)"
       id="g5655">
      <path
         d="M 0,0 L 0.18,0 L 0.36,-0.06 L 0.48,-0.12 L 0.66,-0.18 L 0.78,-0.24 L 0.9,-0.36 L 0.96,-0.48 L 1.08,-0.6 L 1.14,-0.78 L 1.2,-0.9 L 1.32,-1.08 L 1.38,-1.26 L 1.38,-1.44 L 1.5,-1.8 C 1.6,-2.644 1.578,-3.478 1.56,-4.32 L 1.56,-4.98 L 1.68,-4.8 L 1.86,-4.74 L 1.98,-4.62 L 2.1,-4.56 L 2.22,-4.5 L 2.52,-4.5 L 2.58,-4.56 C 2.819,-4.766 2.735,-4.774 2.88,-4.92 L 2.88,-5.04 L 2.94,-5.16 L 2.94,-5.28 L 3,-5.46 L 3,-6.96 L 2.94,-7.08 L 2.94,-7.32 L 2.88,-7.44 L 3,-7.32 L 3.06,-7.26 L 3.12,-7.26 L 3.18,-7.2 L 3.3,-7.2 L 3.36,-7.14 L 3.54,-7.14 L 3.6,-7.2 L 3.66,-7.2 L 3.72,-7.26 L 3.78,-7.26 L 3.84,-7.32 L 3.9,-7.38 L 3.9,-7.44 L 3.96,-7.5 L 3.96,-7.56 L 4.02,-7.56 L 4.02,-7.8 L 4.08,-7.86 L 4.08,-8.4 L 4.02,-8.64 L 4.02,-8.88 L 4.08,-8.82 L 4.2,-8.76 L 4.26,-8.7 L 4.38,-8.58 L 4.44,-8.58 L 4.5,-8.52 L 4.8,-8.52 L 4.8,-8.58 L 4.86,-8.58 L 4.92,-8.64 L 4.98,-8.64 L 4.98,-8.7 L 5.04,-8.7 L 5.04,-8.76 L 5.1,-8.82 L 5.1,-8.88 L 5.16,-8.88 L 5.16,-8.76 C 5.264,-8.637 5.325,-8.272 5.52,-8.1 L 5.58,-8.04 L 5.7,-7.92 L 5.82,-7.8 L 5.94,-7.8 L 6,-7.74 L 6.18,-7.74 L 6.24,-7.8 L 6.3,-7.8 L 6.3,-7.86 L 6.36,-7.92 L 6.48,-8.04 L 6.48,-8.16 L 6.54,-8.22 L 6.54,-8.34 L 6.6,-8.28 L 6.66,-8.16 L 6.72,-7.98 L 6.84,-7.8 L 6.9,-7.62 L 7.14,-7.14 L 7.26,-6.96 L 7.32,-6.84 L 7.38,-6.72 L 7.5,-6.48 L 7.62,-6.42 L 7.68,-6.3 L 7.74,-6.24 L 7.8,-6.12 L 7.92,-6.06 L 8.04,-5.94 L 8.16,-5.88 L 8.22,-5.88 L 8.34,-5.82 L 8.58,-5.82 L 8.64,-5.88 L 8.7,-5.88 L 8.7,-5.94 L 8.76,-5.94 L 8.88,-6.06 L 8.88,-6.12 L 8.94,-6.24 L 9,-6.3 L 9,-6.42 L 9.06,-6.54 L 9.06,-6.66 L 9.12,-6.72 L 9.12,-7.08 L 9.24,-6.84 L 9.36,-6.54 C 9.914,-5.465 11.224,-3.106 12.6,-3.12 L 12.72,-3.12 L 12.9,-3.18 C 14.502,-3.945 12.043,-7.266 11.46,-8.04 L 11.34,-8.22 L 11.34,-8.28 L 11.4,-8.22 L 11.46,-8.22 L 11.52,-8.16 L 11.58,-8.16 L 11.64,-8.1 L 11.76,-8.1 L 11.82,-8.04 L 12.36,-8.04 L 12.42,-8.1 L 12.54,-8.1 L 12.6,-8.16 L 12.66,-8.16 L 12.72,-8.22 L 12.78,-8.28 L 12.84,-8.34 L 12.84,-8.4 L 12.9,-8.46 L 12.9,-8.76 L 12.84,-8.82 L 12.84,-9 L 12.78,-9.12 L 12.78,-9.24 L 12.72,-9.3 L 12.66,-9.42 C 12.463,-9.917 12.121,-10.401 11.76,-10.8 L 11.52,-11.16 L 11.4,-11.28 L 11.52,-11.16 L 11.7,-11.1 L 11.76,-11.1 L 11.82,-11.04 L 11.94,-11.04 L 12,-10.98 L 12.12,-10.98 L 12.18,-11.04 L 12.3,-11.04 L 12.42,-11.1 L 12.48,-11.1 L 12.54,-11.16 L 12.54,-11.34 L 12.6,-11.4 L 12.6,-11.58 L 12.54,-11.64 L 12.54,-11.82 C 12.435,-12.058 12.36,-12.155 12.24,-12.36 L 12.18,-12.48 L 12,-12.66 L 11.88,-12.84 L 11.94,-12.84 L 12.06,-12.78 L 12.48,-12.78 L 12.54,-12.84 L 12.6,-12.84 L 12.66,-12.9 L 12.66,-12.96 L 12.72,-12.96 L 12.72,-13.08 L 12.78,-13.14 L 12.78,-13.44 L 12.72,-13.5 L 12.9,-13.38 L 13.14,-13.26 L 13.26,-13.2 L 13.38,-13.08 L 13.56,-13.02 L 13.68,-12.96 L 13.74,-12.96 L 13.8,-12.9 L 14.04,-12.9 L 14.1,-12.84 L 14.22,-12.84 L 14.28,-12.9 L 14.34,-12.9 L 14.4,-12.96 L 14.46,-12.96 L 14.46,-13.02 L 14.52,-13.08 L 14.52,-13.14 L 14.58,-13.2 L 14.58,-13.56 L 14.52,-13.74 L 14.46,-13.8 L 14.82,-13.56 L 15.18,-13.26 L 15.36,-13.14 L 15.54,-12.96 L 15.66,-12.9 L 15.72,-12.84 L 15.84,-12.78 L 15.9,-12.72 L 16.02,-12.66 L 16.14,-12.66 L 16.26,-12.6 L 16.32,-12.54 L 16.44,-12.54 L 16.56,-12.48 L 16.62,-12.48 L 16.74,-12.42 L 17.04,-12.42 L 17.16,-12.48 L 17.34,-12.48 L 17.4,-12.54 L 17.52,-12.6 L 17.58,-12.66 L 17.64,-12.66 L 17.64,-12.72 L 17.7,-12.78 L 17.7,-12.84 L 17.76,-12.84 L 17.76,-12.9 C 17.76,-13.02 17.76,-13.14 17.76,-13.26 L 17.76,-13.32 L 17.7,-13.32 L 17.7,-13.38 L 17.46,-13.86 L 17.28,-14.04 L 17.16,-14.22 L 17.28,-14.16 L 17.34,-14.04 C 18.667,-13.215 20.886,-11.678 22.5,-12.24 L 22.74,-12.48 C 23.907,-13.962 20.632,-15.446 19.68,-15.9 L 18.96,-16.26 L 19.2,-16.26 L 19.32,-16.32 L 19.56,-16.32 L 19.68,-16.38 L 19.74,-16.44 L 19.86,-16.44 L 19.86,-16.5 L 19.92,-16.5 L 19.92,-16.56 L 19.98,-16.56 L 19.98,-16.62 L 20.04,-16.62 L 20.04,-16.74 L 20.1,-16.8 L 20.1,-17.1 L 20.04,-17.16 L 19.98,-17.28 L 19.92,-17.34 L 19.8,-17.46 L 19.74,-17.52 C 19.311,-17.924 18.485,-18.385 17.94,-18.6 L 17.34,-18.84 L 17.52,-18.84 L 17.64,-18.9 L 17.82,-18.9 L 17.88,-18.96 L 17.94,-18.96 L 17.94,-19.02 L 18,-19.02 L 18.06,-19.08 L 18.06,-19.14 L 18.12,-19.14 L 18.12,-19.2 L 18.18,-19.32 L 18.18,-19.38 L 18.12,-19.44 L 18.12,-19.5 L 18.06,-19.56 L 18.06,-19.62 L 18,-19.68 L 18,-19.74 L 17.94,-19.8 L 17.88,-19.8 L 17.88,-19.86 L 17.82,-19.92 L 17.76,-19.92 L 17.7,-19.98 L 17.64,-19.98 L 17.58,-20.04 L 17.52,-20.04 L 17.46,-20.1 L 17.34,-20.16 L 17.22,-20.16 L 16.98,-20.28 L 16.86,-20.28 L 16.8,-20.34 L 16.68,-20.34 L 16.8,-20.4 L 16.98,-20.4 L 17.04,-20.46 L 17.16,-20.46 L 17.22,-20.52 L 17.28,-20.58 L 17.34,-20.58 L 17.4,-20.64 L 17.46,-20.64 L 17.46,-20.76 L 17.52,-20.76 L 17.52,-21.06 L 17.46,-21.06 L 17.46,-21.12 L 17.4,-21.18 L 17.28,-21.3 L 17.22,-21.36 L 17.34,-21.36 L 17.46,-21.3 L 18.06,-21.3 L 18.18,-21.36 L 18.42,-21.36 L 18.48,-21.42 L 18.6,-21.42 L 18.66,-21.48 L 18.72,-21.48 L 18.72,-21.54 L 18.78,-21.54 L 18.84,-21.6 L 18.84,-21.66 L 18.9,-21.66 L 18.9,-21.72 L 18.96,-21.78 L 18.96,-22.02 L 18.9,-22.08 L 18.9,-22.14 L 18.84,-22.2 L 18.84,-22.26 L 18.78,-22.32 L 18.72,-22.32 L 18.6,-22.44 L 18.54,-22.5 L 18.48,-22.5 L 18.36,-22.62 L 18.24,-22.68 L 18.42,-22.68 L 18.6,-22.62 L 18.84,-22.62 C 19.194,-22.54 19.795,-22.477 20.16,-22.5 L 20.46,-22.5 C 20.66,-22.5 20.86,-22.5 21.06,-22.5 L 21.18,-22.56 L 21.3,-22.56 L 21.42,-22.62 L 21.48,-22.68 L 21.6,-22.68 L 21.72,-22.8 L 21.78,-22.86 L 21.84,-22.92 L 21.84,-23.34 L 21.78,-23.4 L 21.78,-23.46 L 21.72,-23.52 L 21.66,-23.58 L 21.66,-23.64 L 21.6,-23.64 L 21.54,-23.7 L 21.42,-23.76 L 21.36,-23.82 L 21.3,-23.88 L 21.24,-23.88 L 21.18,-23.94 L 21.12,-23.94 L 21.12,-24 L 21.06,-24 L 21.36,-24 L 21.66,-23.94 L 22.02,-23.94 C 22.847,-23.896 23.466,-23.792 24.3,-24 L 24.48,-24 L 24.66,-24.06 C 25.5,-24.376 25.507,-24.246 25.98,-25.02 L 25.98,-25.14 L 26.04,-25.32 L 26.04,-25.56 L 25.98,-25.68 C 25.889,-26.191 25.183,-26.537 24.72,-26.64 L 24.54,-26.64 L 24.36,-26.7 C 23.699,-26.787 22.399,-26.799 21.78,-26.7 L 21.42,-26.7 L 21.06,-26.64 L 20.82,-26.64 L 20.94,-26.76 L 21.06,-26.82 L 21.18,-26.88 L 21.3,-27 L 21.36,-27.06 L 21.48,-27.12 L 21.48,-27.18 L 21.54,-27.24 L 21.6,-27.24 L 21.6,-27.3 L 21.66,-27.36 L 21.66,-27.42 L 21.72,-27.48 L 21.72,-27.72 L 21.66,-27.78 L 21.66,-27.84 L 21.6,-27.9 L 21.6,-27.96 L 21.54,-28.02 L 21.48,-28.02 L 21.42,-28.08 L 21.36,-28.14 L 21.3,-28.14 L 21.24,-28.2 L 21.18,-28.2 C 20.77,-28.493 19.653,-28.199 19.2,-28.2 L 18.72,-28.14 L 18.24,-28.02 L 18.36,-28.14 L 18.48,-28.2 L 18.54,-28.2 L 18.66,-28.32 L 18.72,-28.32 L 18.72,-28.38 L 18.78,-28.44 L 18.78,-28.5 L 18.84,-28.5 L 18.84,-28.86 L 18.78,-28.92 L 18.72,-28.98 L 18.66,-29.04 L 18.6,-29.1 L 18.54,-29.1 L 18.48,-29.16 L 18.36,-29.16 L 18.3,-29.22 L 17.52,-29.22 L 17.4,-29.16 L 17.28,-29.16 L 16.98,-29.1 L 16.74,-29.04 L 16.86,-29.1 L 16.98,-29.22 L 17.04,-29.22 L 17.1,-29.28 L 17.1,-29.34 L 17.16,-29.34 L 17.22,-29.4 L 17.22,-29.46 L 17.28,-29.52 L 17.28,-29.82 L 17.22,-29.88 L 17.16,-29.94 L 17.1,-30 L 17.04,-30 L 16.98,-30.06 L 16.86,-30.06 L 16.8,-30.12 L 16.68,-30.18 L 16.92,-30.24 C 17.209,-30.346 17.64,-30.551 17.88,-30.72 L 17.94,-30.72 L 17.94,-30.78 L 18,-30.84 L 18.06,-30.84 L 18.06,-30.9 L 18.12,-30.96 L 18.12,-31.38 L 18.06,-31.38 L 18,-31.44 L 18,-31.5 L 17.94,-31.56 L 17.88,-31.56 L 17.82,-31.62 L 17.64,-31.62 L 17.58,-31.68 L 17.22,-31.68 L 17.58,-31.8 C 18.214,-32.142 18.96,-32.231 19.62,-32.76 L 19.74,-32.88 L 19.8,-32.94 L 19.92,-33.06 L 19.98,-33.18 L 19.98,-33.24 L 20.04,-33.36 L 20.04,-33.42 L 19.98,-33.54 L 19.98,-33.66 L 19.92,-33.72 L 19.92,-33.78 L 19.86,-33.84 L 19.8,-33.9 L 19.8,-33.96 L 19.74,-33.96 L 19.68,-34.02 L 19.62,-34.02 L 19.56,-34.08 L 19.38,-34.08 L 19.32,-34.14 L 18.66,-34.14 L 18.72,-34.2 L 18.78,-34.2 L 18.84,-34.26 C 19.678,-34.711 20.542,-35.094 21.36,-35.58 L 21.54,-35.76 L 21.72,-35.88 C 22.186,-36.165 22.756,-36.728 22.74,-37.32 L 22.68,-37.44 L 22.62,-37.62 L 22.56,-37.74 C 21.535,-39.169 19.013,-37.368 17.94,-36.78 L 17.64,-36.6 L 17.46,-36.42 L 17.52,-36.54 L 17.52,-36.66 L 17.58,-36.78 L 17.64,-36.84 L 17.7,-36.96 L 17.7,-37.14 L 17.76,-37.2 L 17.76,-37.32 L 17.7,-37.38 L 17.7,-37.44 C 17.689,-37.62 17.558,-37.872 17.34,-37.86 L 17.22,-37.92 L 17.04,-37.92 C 16.305,-37.9 15.569,-37.365 15,-36.9 L 14.58,-36.6 L 14.28,-36.36 L 14.34,-36.42 L 14.34,-36.54 L 14.46,-36.66 L 14.46,-36.78 L 14.52,-36.84 L 14.52,-37.2 L 14.46,-37.26 L 14.46,-37.32 L 14.4,-37.32 L 14.4,-37.38 L 14.34,-37.38 L 14.28,-37.44 L 14.22,-37.44 L 14.16,-37.5 L 13.98,-37.5 L 13.92,-37.44 L 13.8,-37.44 L 13.68,-37.38 L 13.56,-37.38 L 13.44,-37.32 L 13.38,-37.26 L 13.26,-37.2 L 13.02,-37.08 L 12.96,-36.96 L 12.78,-36.84 L 12.54,-36.72 L 12.6,-36.78 L 12.66,-36.9 L 12.66,-37.2 L 12.6,-37.26 L 12.6,-37.32 L 12.48,-37.44 L 12.42,-37.44 L 12.3,-37.5 L 12.06,-37.5 L 12,-37.44 L 11.76,-37.44 L 11.64,-37.38 L 11.76,-37.5 L 11.82,-37.62 C 12,-37.823 12.168,-38.042 12.3,-38.28 L 12.36,-38.4 L 12.42,-38.46 L 12.48,-38.52 L 12.48,-38.88 L 12.42,-38.94 L 12.42,-39 L 12.36,-39 L 12.36,-39.06 L 12.3,-39.06 L 12.24,-39.12 L 11.94,-39.12 L 12.18,-39.42 L 12.36,-39.66 C 12.786,-40.125 12.805,-40.251 13.08,-40.8 L 13.14,-40.92 L 13.2,-41.04 L 13.2,-41.64 L 13.14,-41.7 L 13.14,-41.76 L 13.08,-41.82 L 13.08,-41.88 L 13.02,-41.94 L 12.96,-41.94 L 12.96,-42 L 12.78,-42 L 12.72,-42.06 L 12.66,-42.06 L 12.54,-42 L 12.42,-42 L 12.24,-41.94 L 12.12,-41.88 L 12,-41.88 L 11.88,-41.82 L 13.38,-44.28 L 13.44,-44.28 L 13.44,-44.34 L 13.5,-44.46 L 13.5,-44.52 L 13.56,-44.58 L 13.56,-44.64 L 13.62,-44.7 L 13.62,-44.82 L 13.68,-44.88 L 13.68,-45.06 L 13.74,-45.18 C 13.74,-45.36 13.74,-45.54 13.74,-45.72 L 13.74,-45.96 L 13.68,-46.08 L 13.68,-46.14 L 13.62,-46.2 L 13.62,-46.32 L 13.5,-46.44 L 13.5,-46.5 L 13.44,-46.56 L 13.32,-46.68 L 13.2,-46.68 L 13.14,-46.74 L 13.02,-46.74 L 12.96,-46.8 L 12.6,-46.8 C 12.5,-46.8 12.4,-46.8 12.3,-46.8 L 12.24,-46.74 L 12.18,-46.74 L 12.06,-46.68 L 11.94,-46.68 L 11.82,-46.62 L 11.7,-46.5 L 11.58,-46.44 L 11.34,-46.32 L 11.16,-46.2 L 11.04,-46.08 L 10.98,-46.02 L 10.92,-45.9 L 10.86,-45.84 L 10.74,-45.78 L 10.68,-45.66 L 10.56,-45.48 L 10.44,-45.24 C 10.062,-44.821 9.962,-44.349 9.66,-43.92 L 9.54,-43.74 L 9.42,-43.5 L 9.42,-43.38 L 9.36,-43.5 L 9.36,-43.68 L 9.3,-43.74 L 9.3,-43.8 L 9.24,-43.86 L 9.24,-43.92 L 9.12,-44.04 L 9.06,-44.04 L 9,-44.1 L 8.82,-44.1 L 8.7,-44.16 L 8.64,-44.16 L 8.52,-44.1 L 8.46,-44.1 L 8.34,-44.04 L 8.28,-44.04 L 8.22,-43.98 L 8.16,-43.92 L 8.04,-43.86 L 7.98,-43.8 L 7.92,-43.68 L 7.86,-43.62 L 7.8,-43.5 L 7.74,-43.44 L 7.68,-43.32 L 7.62,-43.26 C 7.399,-42.862 7.172,-42.487 7.02,-42.06 L 6.9,-41.88 L 6.84,-41.7 L 6.78,-41.58 L 6.78,-42 L 6.72,-42 L 6.72,-42.12 L 6.66,-42.12 L 6.66,-42.18 L 6.6,-42.24 L 6.48,-42.24 L 6.42,-42.3 L 6.12,-42.3 L 6.06,-42.24 L 5.94,-42.24 L 5.94,-42.18 L 5.88,-42.12 L 5.82,-42.12 L 5.76,-42.06 L 5.7,-42.06 L 5.64,-41.94 L 5.52,-41.82 L 5.46,-41.76 L 5.34,-41.52 L 5.22,-41.46 L 5.16,-41.22 L 5.04,-41.1 L 5.04,-41.28 L 4.98,-41.34 L 4.98,-41.4 L 4.92,-41.4 L 4.86,-41.46 L 4.8,-41.46 L 4.74,-41.52 L 4.38,-41.52 L 4.32,-41.46 L 4.2,-41.4 L 4.08,-41.28 L 4.14,-41.52 C 4.112,-41.972 4.25,-42.525 3.9,-42.84 L 3.9,-42.9 L 3.78,-42.9 L 3.72,-42.96 L 3.48,-42.96 L 3.48,-42.9 L 3.36,-42.9 L 3.3,-42.84 L 3.24,-42.84 L 3.18,-42.78 L 3.12,-42.78 L 3.06,-42.72 L 3,-42.66 L 3,-42.6 L 3.18,-44.46 L 3.18,-44.7 L 3.12,-44.88 L 3.12,-45.18 L 3.06,-45.24 L 3.06,-45.36 L 3,-45.36 L 3,-45.42 L 2.94,-45.48 L 2.94,-45.54 L 2.88,-45.54 L 2.88,-45.6 L 2.76,-45.6 L 2.7,-45.66 L 2.64,-45.72 L 2.22,-45.72 L 2.16,-45.66 L 2.1,-45.66 L 2.04,-45.6 L 1.92,-45.6 L 1.86,-45.54 L 1.86,-45.48 L 1.8,-45.42 L 1.68,-45.3 L 1.56,-45.18 L 1.5,-45 L 1.5,-45.24 L 1.56,-45.54 L 1.56,-45.78 C 1.698,-46.738 1.782,-48.15 1.32,-49.02 L 1.26,-49.2 L 1.2,-49.32 L 1.08,-49.44 L 1.02,-49.5 L 0.96,-49.62 L 0.9,-49.68 L 0.84,-49.74 L 0.78,-49.74 L 0.72,-49.8 L 0.6,-49.92 L 0.54,-49.92 L 0.48,-49.98 L 0.3,-49.98 L 0.24,-50.04 L -0.18,-50.04 L -0.24,-49.98 L -0.36,-49.98 L -0.42,-49.92 L -0.54,-49.86 L -0.6,-49.8 L -0.66,-49.8 L -0.78,-49.74 L -0.84,-49.68 L -0.9,-49.62 L -0.96,-49.5 C -1.283,-49.224 -1.127,-49.208 -1.26,-49.08 L -1.32,-48.96 L -1.32,-48.9 L -1.38,-48.78 L -1.44,-48.72 L -1.44,-48.6 L -1.5,-48.54 L -1.5,-48.42 L -1.56,-48.24 L -1.56,-48.06 L -1.62,-47.88 L -1.62,-47.52 L -1.68,-47.34 L -1.62,-47.16 L -1.62,-46.32 L -1.56,-46.02 L -1.5,-45.66 L -1.44,-45.36 L -1.44,-45 L -1.56,-45.18 L -1.62,-45.3 L -1.68,-45.42 L -1.8,-45.54 L -1.86,-45.6 L -1.92,-45.6 L -1.98,-45.66 L -2.04,-45.72 L -2.16,-45.72 L -2.22,-45.78 L -2.4,-45.78 L -2.46,-45.72 L -2.52,-45.72 L -2.58,-45.66 L -2.64,-45.66 L -2.7,-45.6 L -2.76,-45.6 L -2.82,-45.54 L -2.82,-45.48 L -2.88,-45.48 L -2.88,-45.42 L -2.94,-45.36 L -2.94,-45.24 L -3,-45.12 L -3.06,-45 L -3.12,-44.94 L -3.12,-44.4 C -3.17,-43.859 -2.936,-43.206 -2.94,-42.72 L -2.94,-42.6 L -3,-42.72 L -3.06,-42.78 L -3.12,-42.78 L -3.12,-42.84 L -3.18,-42.84 L -3.24,-42.9 L -3.6,-42.9 L -3.72,-42.84 L -3.84,-42.84 L -3.84,-42.78 L -3.9,-42.78 L -3.96,-42.72 L -3.96,-42.66 L -4.02,-42.6 L -4.02,-42.54 L -4.08,-42.48 L -4.08,-42.24 L -4.14,-42.12 L -4.14,-41.76 L -4.08,-41.52 L -4.08,-41.34 L -4.14,-41.4 C -4.281,-41.587 -4.52,-41.591 -4.74,-41.58 L -4.8,-41.58 L -4.8,-41.52 L -4.86,-41.46 L -4.92,-41.4 L -4.92,-41.34 L -4.98,-41.28 L -4.98,-41.1 L -5.1,-41.28 C -5.307,-41.591 -5.184,-41.701 -5.58,-42.06 L -5.64,-42.06 L -5.64,-42.12 L -5.7,-42.12 L -5.76,-42.18 L -5.82,-42.18 L -5.88,-42.24 L -6,-42.24 L -6.06,-42.3 L -6.18,-42.3 L -6.24,-42.24 L -6.42,-42.24 L -6.48,-42.18 L -6.54,-42.18 L -6.54,-42.12 L -6.6,-42.12 L -6.66,-42.06 L -6.66,-42 L -6.72,-42 L -6.72,-41.88 L -6.78,-41.76 L -6.78,-41.58 L -6.9,-41.76 L -6.96,-41.94 C -7.258,-42.543 -7.357,-42.953 -7.74,-43.56 L -7.86,-43.68 C -8.136,-44.026 -8.58,-44.221 -9,-44.04 L -9.06,-43.98 L -9.12,-43.98 L -9.12,-43.92 L -9.24,-43.8 L -9.24,-43.74 L -9.3,-43.62 L -9.42,-43.44 L -10.38,-45.36 C -10.578,-45.703 -10.878,-45.979 -11.16,-46.26 L -11.28,-46.44 L -11.34,-46.44 L -11.46,-46.5 L -11.52,-46.56 L -11.64,-46.68 L -11.76,-46.74 L -11.82,-46.74 L -11.88,-46.8 L -12,-46.8 L -12.06,-46.86 L -12.12,-46.86 L -12.24,-46.92 L -12.78,-46.92 L -12.84,-46.86 L -12.9,-46.86 L -13.02,-46.8 L -13.08,-46.8 L -13.2,-46.68 L -13.26,-46.68 L -13.26,-46.62 L -13.32,-46.56 L -13.44,-46.44 L -13.44,-46.38 L -13.5,-46.32 L -13.5,-46.2 L -13.56,-46.14 L -13.56,-45.9 L -13.62,-45.78 L -13.62,-45.12 L -13.56,-45 L -13.56,-44.88 L -13.5,-44.76 L -13.5,-44.64 L -13.44,-44.52 L -13.44,-44.46 L -13.38,-44.34 L -13.32,-44.22 L -13.32,-44.1 L -13.26,-43.98 L -13.2,-43.92 L -13.14,-43.8 L -13.02,-43.56 C -12.718,-43.195 -12.545,-42.657 -12.24,-42.42 L -12.12,-42.24 L -11.94,-42 L -11.82,-41.82 L -11.88,-41.88 L -12,-41.88 L -12.06,-41.94 L -12.18,-41.94 L -12.24,-42 L -12.54,-42 C -12.66,-42 -12.78,-42 -12.9,-42 L -12.96,-41.94 L -13.02,-41.94 L -13.02,-41.88 L -13.08,-41.82 L -13.14,-41.82 L -13.14,-41.76 L -13.2,-41.7 L -13.2,-41.58 L -13.26,-41.52 L -13.26,-41.34 L -13.2,-41.22 L -13.2,-41.1 L -13.14,-40.98 L -13.14,-40.86 L -12.96,-40.62 L -12.84,-40.44 L -12.72,-40.2 L -12.6,-40.02 L -12.54,-39.96 L -12.48,-39.84 L -12.3,-39.66 L -12.12,-39.48 L -11.94,-39.24 L -12.06,-39.24 L -12.12,-39.18 C -12.373,-39.192 -12.645,-38.901 -12.6,-38.64 L -12.6,-38.58 L -12.54,-38.52 L -12.54,-38.4 L -12.48,-38.34 L -12.48,-38.28 L -12.36,-38.16 L -12.36,-38.1 L -12.3,-37.98 L -12.24,-37.92 L -12.12,-37.8 L -12.06,-37.74 L -11.94,-37.68 L -11.82,-37.5 L -11.64,-37.38 L -11.7,-37.44 L -11.82,-37.44 L -11.88,-37.5 L -12.24,-37.5 L -12.3,-37.44 L -12.36,-37.44 L -12.48,-37.32 L -12.48,-37.26 L -12.54,-37.26 L -12.54,-37.08 L -12.6,-37.02 L -12.6,-36.96 L -12.54,-36.96 L -12.54,-36.72 L -12.72,-36.84 L -12.96,-37.02 L -13.08,-37.14 L -13.2,-37.2 L -13.44,-37.32 L -13.5,-37.38 L -13.56,-37.38 L -13.56,-37.44 L -13.74,-37.44 L -13.8,-37.5 L -14.04,-37.5 L -14.1,-37.44 L -14.22,-37.44 L -14.28,-37.38 L -14.28,-37.32 L -14.34,-37.32 L -14.34,-37.26 L -14.4,-37.26 L -14.4,-37.14 L -14.46,-37.08 L -14.46,-36.9 L -14.4,-36.84 L -14.4,-36.66 L -14.34,-36.6 L -14.34,-36.54 L -14.28,-36.48 L -14.28,-36.42 L -14.22,-36.36 L -14.52,-36.6 L -14.88,-36.9 C -15.287,-37.198 -15.676,-37.526 -16.14,-37.74 L -16.26,-37.8 L -16.38,-37.8 C -16.591,-37.951 -16.895,-37.918 -17.16,-37.92 L -17.22,-37.86 L -17.34,-37.86 L -17.34,-37.8 L -17.4,-37.8 L -17.46,-37.74 L -17.46,-37.68 L -17.52,-37.68 L -17.52,-37.62 L -17.58,-37.62 L -17.58,-37.5 L -17.64,-37.5 L -17.64,-37.44 C -17.688,-36.875 -17.484,-36.918 -17.46,-36.54 L -17.4,-36.42 L -17.52,-36.54 L -17.76,-36.72 C -18.849,-37.385 -21.221,-39.078 -22.44,-37.98 L -22.68,-37.74 C -22.898,-35.942 -20.497,-35.07 -19.2,-34.5 L -18.9,-34.32 L -18.66,-34.2 L -19.14,-34.2 L -19.26,-34.14 L -19.5,-34.14 L -19.5,-34.08 L -19.68,-34.08 L -19.68,-34.02 L -19.74,-34.02 L -19.8,-33.96 L -19.92,-33.84 L -19.92,-33.3 L -19.86,-33.24 L -19.8,-33.12 L -19.74,-33.06 L -19.68,-33 L -19.62,-32.88 L -19.56,-32.82 L -19.44,-32.76 C -18.797,-32.247 -18.01,-32.117 -17.34,-31.74 L -17.28,-31.74 L -17.16,-31.68 L -17.34,-31.68 L -17.46,-31.62 L -17.7,-31.62 L -17.76,-31.56 L -17.88,-31.56 L -17.88,-31.5 L -17.94,-31.44 C -18.119,-31.259 -18.048,-31.377 -18.06,-31.14 L -18.06,-31.08 L -18,-31.02 C -17.982,-30.878 -17.872,-30.763 -17.76,-30.66 L -17.7,-30.6 L -17.7,-30.54 L -17.64,-30.54 L -17.52,-30.42 L -17.46,-30.42 L -17.22,-30.3 L -17.1,-30.24 L -17.04,-30.18 L -16.92,-30.18 L -16.86,-30.12 L -16.74,-30.12 L -16.74,-30.06 L -16.8,-30.06 L -16.92,-30 L -16.98,-30 L -17.04,-29.94 L -17.1,-29.94 L -17.22,-29.82 L -17.22,-29.76 L -17.28,-29.7 L -17.28,-29.52 L -17.22,-29.52 L -17.22,-29.4 L -17.16,-29.4 L -17.16,-29.34 L -17.04,-29.22 L -17.04,-29.16 L -16.98,-29.16 L -16.92,-29.1 L -16.86,-29.1 L -16.86,-29.04 L -16.74,-29.04 L -16.98,-29.04 L -17.28,-29.1 L -17.4,-29.16 C -17.98,-29.13 -17.58,-29.241 -18,-29.22 L -18.18,-29.22 L -18.24,-29.16 L -18.36,-29.16 L -18.42,-29.1 L -18.54,-29.1 L -18.6,-29.04 L -18.66,-28.98 L -18.72,-28.98 L -18.78,-28.92 L -18.84,-28.86 L -18.84,-28.68 L -18.78,-28.62 L -18.78,-28.56 L -18.72,-28.5 L -18.66,-28.44 L -18.66,-28.38 L -18.6,-28.32 L -18.48,-28.2 L -18.42,-28.2 L -18.3,-28.08 L -18.18,-28.02 L -18.36,-28.08 L -18.48,-28.08 C -19.171,-28.314 -21.05,-28.594 -21.54,-27.9 L -21.6,-27.84 L -21.6,-27.72 L -21.66,-27.66 L -21.66,-27.54 L -21.6,-27.48 L -21.6,-27.36 L -21.54,-27.3 L -21.54,-27.24 L -21.48,-27.18 L -21.36,-27.06 L -21.24,-26.94 L -21.12,-26.82 L -21.06,-26.82 L -21,-26.76 L -20.94,-26.7 L -20.82,-26.7 L -20.76,-26.64 L -21.06,-26.64 L -21.24,-26.7 C -22.247,-26.734 -22.991,-26.871 -24.06,-26.82 L -24.24,-26.76 L -24.48,-26.76 C -25.072,-26.619 -25.755,-26.359 -25.92,-25.68 L -25.98,-25.5 L -25.98,-25.2 L -25.92,-25.08 L -25.92,-25.02 L -25.86,-24.9 L -25.8,-24.84 L -25.74,-24.72 L -25.68,-24.66 L -25.56,-24.54 L -25.5,-24.48 L -25.44,-24.42 L -25.32,-24.3 L -25.26,-24.24 L -25.14,-24.24 L -25.08,-24.18 L -25.02,-24.12 L -24.9,-24.12 L -24.84,-24.06 L -24.72,-24.06 L -24.66,-24 L -24.36,-24 L -24.18,-23.94 L -21.18,-23.94 L -21.24,-23.88 C -21.548,-23.759 -21.4,-23.825 -21.66,-23.58 L -21.72,-23.58 L -21.72,-23.52 L -21.78,-23.4 L -21.78,-23.34 L -21.84,-23.28 L -21.84,-22.8 L -21.72,-22.68 L -21.66,-22.68 L -21.54,-22.56 L -21.42,-22.56 L -21.36,-22.5 L -20.76,-22.5 L -20.64,-22.44 L -20.52,-22.5 C -19.749,-22.457 -19.211,-22.579 -18.48,-22.62 L -18.18,-22.68 L -18.36,-22.56 L -18.48,-22.44 L -18.6,-22.38 L -18.66,-22.26 L -18.72,-22.2 L -18.78,-22.08 L -18.84,-22.02 L -18.84,-21.96 L -18.9,-21.9 L -18.9,-21.84 L -18.84,-21.72 L -18.84,-21.66 L -18.78,-21.6 L -18.72,-21.54 L -18.66,-21.48 L -18.6,-21.48 L -18.54,-21.42 L -18.48,-21.42 L -18.36,-21.36 L -18.12,-21.36 L -18,-21.3 C -17.426,-21.278 -18.034,-21.382 -17.46,-21.36 L -17.4,-21.36 L -17.28,-21.42 L -17.16,-21.42 L -17.22,-21.36 L -17.28,-21.3 L -17.4,-21.18 L -17.4,-21.06 L -17.46,-21 L -17.46,-20.76 L -17.4,-20.76 L -17.4,-20.7 C -17.233,-20.496 -16.952,-20.368 -16.68,-20.4 L -16.62,-20.4 L -16.62,-20.34 L -16.92,-20.34 L -17.16,-20.22 L -17.28,-20.22 L -17.4,-20.16 L -17.52,-20.1 L -17.58,-20.04 L -17.7,-20.04 L -17.76,-19.98 L -17.88,-19.86 L -17.94,-19.8 L -18,-19.74 L -18,-19.68 L -18.06,-19.62 L -18.06,-19.5 L -18.12,-19.44 L -18.12,-19.2 L -18.06,-19.14 L -18.06,-19.08 L -18,-19.02 L -17.94,-18.96 L -17.88,-18.96 L -17.76,-18.9 L -17.7,-18.9 L -17.58,-18.84 L -17.4,-18.84 L -17.58,-18.72 L -17.76,-18.66 L -17.94,-18.6 L -18.18,-18.48 L -18.42,-18.42 L -18.6,-18.3 L -18.72,-18.24 L -18.84,-18.24 L -18.9,-18.18 L -19.14,-18.06 L -19.2,-18 L -19.32,-17.94 L -19.38,-17.88 L -19.5,-17.76 L -19.56,-17.7 L -19.62,-17.64 L -19.74,-17.58 L -19.8,-17.46 L -19.86,-17.4 L -19.86,-17.34 L -19.92,-17.22 L -19.98,-17.16 L -19.98,-16.62 L -19.92,-16.62 L -19.92,-16.56 L -19.86,-16.56 L -19.86,-16.5 L -19.8,-16.5 L -19.74,-16.44 L -19.62,-16.44 L -19.5,-16.38 L -19.38,-16.38 L -19.2,-16.32 L -19.02,-16.32 L -19.32,-16.2 L -19.62,-16.02 C -21.023,-15.397 -22.217,-14.806 -22.92,-13.38 L -22.92,-12.9 C -22.907,-10.791 -18.283,-13.499 -17.64,-13.98 L -17.34,-14.1 L -17.16,-14.22 L -17.28,-14.04 L -17.34,-13.92 L -17.4,-13.8 L -17.46,-13.68 L -17.52,-13.56 L -17.52,-13.44 L -17.58,-13.38 L -17.58,-13.08 C -17.612,-12.873 -17.485,-12.734 -17.34,-12.6 L -17.28,-12.54 L -17.22,-12.54 L -17.16,-12.48 L -17.04,-12.48 C -16.577,-12.441 -16.61,-12.554 -16.32,-12.54 L -16.26,-12.6 L -16.14,-12.6 L -16.08,-12.66 L -15.96,-12.66 L -15.84,-12.78 L -15.72,-12.84 L -15.6,-12.9 L -15.24,-13.14 L -15.12,-13.26 L -14.82,-13.5 L -14.52,-13.8 L -14.52,-13.2 L -14.46,-13.14 L -14.46,-13.08 L -14.4,-13.08 L -14.34,-13.02 C -14.191,-12.823 -14.136,-12.923 -13.86,-12.9 L -13.8,-12.9 L -13.74,-12.96 L -13.62,-12.96 L -13.56,-13.02 L -13.44,-13.08 L -13.32,-13.14 L -13.26,-13.2 L -13.14,-13.26 L -13.08,-13.32 L -12.9,-13.44 L -12.72,-13.56 L -12.72,-13.26 L -12.66,-13.2 L -12.66,-13.02 L -12.6,-13.02 L -12.6,-12.96 L -12.54,-12.9 L -12.42,-12.9 L -12.42,-12.84 L -11.82,-12.84 L -11.94,-12.72 L -12.12,-12.48 L -12.18,-12.36 L -12.24,-12.3 L -12.36,-12.18 L -12.42,-12.06 L -12.42,-12 L -12.48,-11.94 L -12.48,-11.82 L -12.54,-11.76 L -12.54,-11.4 L -12.48,-11.34 L -12.48,-11.22 L -12.42,-11.16 L -12.36,-11.1 L -12.3,-11.1 L -12.24,-11.04 L -12,-11.04 L -11.94,-10.98 L -11.88,-11.04 C -11.714,-11.012 -11.562,-11.102 -11.46,-11.22 L -11.34,-11.28 L -11.52,-11.04 L -11.64,-10.86 L -12,-10.38 L -12.12,-10.2 L -12.3,-9.96 L -12.36,-9.84 L -12.42,-9.78 L -12.48,-9.66 C -12.591,-9.472 -12.658,-9.319 -12.72,-9.12 L -12.78,-9.06 L -12.78,-8.94 L -12.84,-8.82 L -12.84,-8.34 L -12.78,-8.28 L -12.78,-8.22 L -12.72,-8.16 L -12.66,-8.1 L -12.54,-8.04 L -12.48,-7.98 L -12.3,-7.98 L -12.3,-7.92 L -12.18,-7.92 L -12.06,-7.98 L -11.94,-7.98 L -11.82,-8.04 L -11.76,-8.04 L -11.52,-8.16 L -11.46,-8.22 L -11.34,-8.28 L -12.96,-5.7 L -13.02,-5.58 L -13.08,-5.46 L -13.14,-5.34 L -13.2,-5.16 L -13.26,-5.04 L -13.26,-4.86 L -13.32,-4.68 L -13.32,-4.5 L -13.38,-4.44 L -13.38,-3.96 L -13.32,-3.9 L -13.32,-3.78 L -13.26,-3.72 L -13.26,-3.66 L -13.14,-3.54 L -13.14,-3.48 L -13.08,-3.42 L -12.84,-3.3 L -12.78,-3.24 L -12.72,-3.24 L -12.66,-3.18 L -12.54,-3.18 L -12.54,-3.12 L -12.18,-3.12 L -12.12,-3.18 L -12.06,-3.18 L -11.82,-3.3 C -11.402,-3.471 -11.595,-3.525 -11.16,-3.72 L -11.1,-3.84 L -10.98,-3.9 L -10.92,-4.02 C -10.313,-4.622 -9.619,-5.802 -9.3,-6.6 L -9.18,-6.84 L -9.06,-7.08 L -9,-7.08 L -9,-6.9 C -9,-6.7 -9,-6.5 -9,-6.3 L -9,-6.24 L -8.94,-6.24 L -8.94,-6.18 L -8.88,-6.12 L -8.88,-6.06 L -8.82,-6 L -8.76,-6 L -8.76,-5.94 L -8.64,-5.94 L -8.64,-5.88 L -8.52,-5.88 L -8.46,-5.82 L -8.34,-5.82 L -8.22,-5.88 L -8.16,-5.88 L -8.1,-5.94 L -7.98,-5.94 L -7.92,-6 L -7.8,-6.06 L -7.68,-6.18 L -7.62,-6.3 C -7.282,-6.729 -7.04,-7.23 -6.84,-7.74 L -6.72,-8.1 L -6.6,-8.4 L -6.54,-8.22 L -6.42,-8.04 L -6.42,-7.92 L -6.36,-7.92 L -6.36,-7.86 L -6.3,-7.86 L -6.24,-7.8 L -5.94,-7.8 L -5.88,-7.86 L -5.82,-7.86 L -5.76,-7.92 L -5.7,-7.92 L -5.7,-7.98 L -5.64,-8.04 L -5.58,-8.1 L -5.52,-8.22 L -5.4,-8.28 L -5.28,-8.52 L -5.22,-8.64 L -5.16,-8.76 L -5.1,-8.82 L -5.1,-8.88 L -5.04,-8.94 L -4.98,-8.82 L -4.98,-8.76 L -4.92,-8.7 L -4.8,-8.58 L -4.56,-8.58 L -4.5,-8.52 L -4.44,-8.58 L -4.26,-8.58 L -4.26,-8.64 L -4.2,-8.64 L -4.2,-8.7 L -4.08,-8.82 L -3.96,-8.94 L -4.02,-8.7 L -4.02,-7.68 L -3.96,-7.62 L -3.96,-7.5 L -3.9,-7.44 L -3.84,-7.38 L -3.84,-7.32 L -3.78,-7.26 L -3.72,-7.26 L -3.66,-7.2 L -3.6,-7.2 L -3.54,-7.14 L -3.3,-7.14 L -3.24,-7.2 L -3.12,-7.2 L -3.12,-7.26 L -3.06,-7.26 L -3.06,-7.32 L -3,-7.32 L -3,-7.38 L -2.94,-7.44 L -2.94,-7.08 C -3.041,-6.759 -3.172,-5.295 -2.94,-4.98 L -2.94,-4.92 L -2.88,-4.8 L -2.82,-4.74 C -2.595,-4.482 -2.616,-4.628 -2.4,-4.5 L -2.22,-4.5 C -1.912,-4.515 -2.047,-4.435 -1.86,-4.62 L -1.8,-4.62 L -1.74,-4.68 L -1.74,-4.74 L -1.68,-4.74 L -1.62,-4.86 L -1.5,-4.98 L -1.5,-4.68 C -1.596,-3.499 -1.937,-0.156 -0.18,0 L 0,0"
         id="path5657"
         style="fill:#1f1a17;fill-opacity:1;fill-rule:evenodd;stroke:none" />
    </g>
    <g
       transform="matrix(0,-1.25,-1.25,0,2993.1493,1324.8434)"
       id="g3799">
      <g
         transform="matrix(0,12.542336,12.542336,0,899.63216,2273.6809)"
         id="g5659"
         style="fill:#fff500;fill-opacity:1">
        <path
           d="M 0,0 L 0.06,-0.06 L 0.12,-0.12 L 0.18,-0.18 L 0.18,-0.24 L 0.24,-0.36 L 0.24,-0.48 L 0.18,-0.6 L 0.18,-0.78 L 0.12,-0.9 L 0.12,-1.02 C -0.21,-1.831 -0.318,-1.942 -0.78,-2.7 L -0.96,-3.06 L -6.3,-11.4 L -7.38,-11.4 L -6.78,-10.2 C -5.15,-7.24 -3.552,-3.631 -1.74,-0.84 L -1.62,-0.72 L -1.56,-0.6 L -1.44,-0.54 L -1.38,-0.48 L -1.32,-0.42 L -1.26,-0.3 L -1.2,-0.24 L -1.08,-0.18 L -1.02,-0.18 L -0.96,-0.12 L -0.84,-0.06 C -0.66,0.088 -0.516,0.061 -0.3,0.06 L -0.18,0.06 L -0.12,0 L 0,0"
           id="path5661"
           style="fill:#fff500;fill-opacity:1;fill-rule:evenodd;stroke:none" />
      </g>
      <g
         transform="matrix(0,12.542336,12.542336,0,865.7667,2217.2401)"
         id="g5667"
         style="fill:#fff500;fill-opacity:1">
        <path
           d="M 0,0 L 0.24,0 L 0.36,-0.12 L 0.42,-0.18 L 0.42,-0.42 L 0.48,-0.48 L 0.48,-0.6 L 0.42,-0.66 L 0.42,-0.9 L 0.36,-1.08 L 0.36,-1.26 L 0.24,-1.62 L 0.12,-1.74 L 0.12,-1.86 L 0.06,-1.92 L -0.12,-2.34 L -0.36,-2.82 L -0.54,-3.3 L -0.78,-3.72 L -0.96,-4.14 L -1.2,-4.56 C -1.691,-5.522 -2.23,-6.537 -2.7,-7.5 L -2.94,-7.92 L -3.12,-8.28 L -3.36,-8.7 L -3.42,-8.7 C -3.6,-8.7 -3.78,-8.7 -3.96,-8.7 L -4.08,-8.7 L -3.9,-8.34 L -3.72,-7.86 C -3.061,-6.181 -2.387,-4.314 -1.62,-2.7 L -1.5,-2.34 L -1.32,-1.98 L -1.2,-1.68 L -1.08,-1.44 L -0.9,-1.14 L -0.78,-0.9 L -0.66,-0.66 L -0.42,-0.3 L -0.3,-0.18 L -0.18,-0.12 L -0.12,-0.06 L 0,0"
           id="path5669"
           style="fill:#fff500;fill-opacity:1;fill-rule:evenodd;stroke:none" />
      </g>
      <g
         transform="matrix(0,12.542336,12.542336,0,845.44874,2190.1501)"
         id="g5675"
         style="fill:#fff500;fill-opacity:1">
        <path
           d="M 0,0 L 0.12,0 L 0.12,-0.06 L 0.18,-0.06 L 0.18,-0.12 L 0.24,-0.18 L 0.24,-0.3 L 0.3,-0.36 L 0.3,-0.6 L 0.24,-0.66 L 0.24,-0.78 L 0.12,-1.2 L -0.06,-1.56 L -0.18,-1.98 C -0.749,-3.413 -1.333,-4.849 -1.86,-6.3 L -2.04,-6.72 L -2.16,-7.08 L -2.64,-7.08 L -2.4,-6.36 C -2.01,-5.1 -1.582,-3.841 -1.2,-2.58 L -0.96,-1.86 L -0.84,-1.5 L -0.72,-1.14 L -0.6,-0.78 L -0.54,-0.72 L -0.54,-0.6 L -0.48,-0.54 L -0.42,-0.42 L -0.42,-0.36 L -0.36,-0.24 L -0.3,-0.18 L -0.24,-0.12 L -0.24,-0.06 L -0.18,-0.06 L -0.12,0 L 0,0"
           id="path5677"
           style="fill:#fff500;fill-opacity:1;fill-rule:evenodd;stroke:none" />
      </g>
      <g
         transform="matrix(0,12.542336,12.542336,0,756.64958,2212.7254)"
         id="g5679"
         style="fill:#fff500;fill-opacity:1">
        <path
           d="M 0,0 L -1.02,0 L 2.34,5.04 L 2.58,5.4 C 3.06,6.083 3.081,6.028 3.6,6.54 L 3.66,6.6 L 3.72,6.6 L 3.78,6.66 L 3.84,6.72 L 3.96,6.72 L 4.02,6.78 L 4.26,6.78 L 4.38,6.72 L 4.44,6.72 L 4.5,6.6 L 4.56,6.54 L 4.56,6.24 L 4.5,6.06 L 4.44,5.88 L 4.32,5.7 L 4.2,5.46 L 4.08,5.22 L 3.96,4.98 L 3.42,4.26 L 3.24,3.96 C 2.255,2.716 1.201,1.509 0.24,0.24 L 0,0"
           id="path5681"
           style="fill:#fff500;fill-opacity:1;fill-rule:evenodd;stroke:none" />
      </g>
      <g
         transform="matrix(0,12.542336,12.542336,0,804.05927,2266.1553)"
         id="g5687"
         style="fill:#fff500;fill-opacity:1">
        <path
           d="M 0,0 L 0.06,-0.06 L 0.06,-0.12 L 0.12,-0.18 L 0.12,-0.24 L 0.06,-0.36 L 0.06,-0.42 L 0,-0.48 L -0.06,-0.6 L -0.12,-0.72 L -0.18,-0.84 L -0.24,-0.9 L -0.3,-1.02 L -0.54,-1.26 L -0.6,-1.44 L -1.26,-2.1 L -1.5,-2.4 L -2.04,-2.94 L -2.28,-3.24 L -2.82,-3.78 L -3.84,-3.78 L -0.84,-0.24 C -0.737,-0.131 -0.622,-0.017 -0.48,0 L -0.42,0 L -0.42,0.06 L -0.12,0.06 L -0.06,0 L 0,0"
           id="path5689"
           style="fill:#fff500;fill-opacity:1;fill-rule:evenodd;stroke:none" />
      </g>
      <g
         transform="matrix(0,12.542336,12.542336,0,787.50249,2373.0167)"
         id="g5691"
         style="fill:#fff500;fill-opacity:1">
        <path
           d="M 0,0 L 0.18,0 L 0.3,0.06 C 0.699,0.033 0.338,0.15 0.9,0.12 L 1.2,0.12 L 1.26,0.06 L 1.38,0.06 L 1.44,0 L 1.5,0 L 1.5,-0.06 L 1.56,-0.06 L 1.56,-0.12 L 1.62,-0.18 L 1.68,-0.18 L 1.68,-0.3 L 1.74,-0.36 L 1.74,-0.6 L 1.68,-0.72 L 1.68,-0.84 L 1.62,-0.9 L 1.5,-1.02 L 1.38,-1.14 L 1.32,-1.26 L 1.2,-1.38 L 1.14,-1.44 L 1.02,-1.5 L 0.9,-1.62 L 0.54,-1.86 L 0.36,-1.92 L 0.24,-2.04 L 0.06,-2.16 L -0.18,-2.28 L -10.98,-7.56 L -10.98,-6.54 L -10.32,-6.12 C -7.207,-4.06 -3.632,-1.674 -0.24,-0.12 L 0,0"
           id="path5693"
           style="fill:#fff500;fill-opacity:1;fill-rule:evenodd;stroke:none" />
      </g>
      <g
         transform="matrix(0,12.542336,12.542336,0,784.4932,2328.6163)"
         id="g5695"
         style="fill:#fff500;fill-opacity:1">
        <path
           d="M 0,0 L 0,-0.06 L 0.06,-0.12 L 0.06,-0.18 L 0.12,-0.24 L 0.12,-0.3 L 0.06,-0.36 L 0.06,-0.48 L 0,-0.54 L 0,-0.66 L -0.12,-0.78 L -0.18,-0.84 C -0.418,-1.263 -1.086,-1.72 -1.44,-2.04 L -1.56,-2.1 L -7.44,-5.94 L -7.44,-4.74 L -7.08,-4.44 C -5.509,-3.256 -3.907,-2.137 -2.34,-0.96 L -1.98,-0.72 L -1.62,-0.42 C -1.206,-0.164 -0.804,0.172 -0.3,0.12 L -0.18,0.12 L -0.18,0.06 L -0.06,0.06 L 0,0"
           id="path5697"
           style="fill:#fff500;fill-opacity:1;fill-rule:evenodd;stroke:none" />
      </g>
      <g
         transform="matrix(0,12.542336,12.542336,0,779.97846,2290.9896)"
         id="g5699"
         style="fill:#fff500;fill-opacity:1">
        <path
           d="M 0,0 L 0,-0.36 L -0.06,-0.42 L -0.06,-0.48 L -0.18,-0.54 L -0.24,-0.66 C -0.452,-0.895 -0.674,-0.962 -0.9,-1.26 L -1.2,-1.5 L -1.68,-1.86 C -2.476,-2.471 -3.1,-3.033 -3.96,-3.6 L -4.26,-3.84 L -4.44,-4.02 L -4.44,-3.24 L -4.02,-2.88 C -2.944,-2.02 -2.007,-1 -0.9,-0.18 L -0.66,-0.06 C -0.411,0.125 -0.426,0.043 -0.12,0.06 L -0.06,0.06 L 0,0"
           id="path5701"
           style="fill:#fff500;fill-opacity:1;fill-rule:evenodd;stroke:none" />
      </g>
      <g
         transform="matrix(0,12.542336,12.542336,0,782.98775,2268.4143)"
         id="g5703"
         style="fill:#fff500;fill-opacity:1">
        <path
           d="M 0,0 L 0.06,0 L 0.06,-0.06 L 0.12,-0.06 L 0.12,-0.42 L 0,-0.54 L -0.06,-0.6 L -0.12,-0.72 L -0.18,-0.78 L -0.24,-0.84 C -0.668,-1.382 -1.562,-1.868 -2.1,-2.52 L -2.4,-2.76 L -2.64,-3 L -2.64,-2.76 C -2.662,-1.873 -2.652,-2.274 -2.04,-1.5 L -1.86,-1.32 L -1.74,-1.14 L -1.56,-1.02 L -1.44,-0.84 L -1.26,-0.66 L -1.02,-0.48 L -0.96,-0.36 L -0.84,-0.3 L -0.78,-0.24 L -0.66,-0.12 L -0.54,-0.06 L -0.48,0 L -0.36,0 L -0.36,0.06 L -0.06,0.06 L 0,0"
           id="path5705"
           style="fill:#fff500;fill-opacity:1;fill-rule:evenodd;stroke:none" />
      </g>
      <g
         transform="matrix(0,12.542336,12.542336,0,734.82453,2358.7189)"
         id="g5707"
         style="fill:#fff500;fill-opacity:1">
        <path
           d="M 0,0 L -0.06,-0.12 L -0.12,-0.3 C -1.053,-1.035 -2.118,-1.574 -3.24,-1.98 L -4.08,-2.34 C -5.874,-2.966 -7.682,-3.572 -9.48,-4.2 L -9.84,-4.32 L -9.84,-3.72 L -3.54,-0.78 L -3.36,-0.72 L -3.18,-0.66 L -2.46,-0.3 L -2.16,-0.18 L -1.86,-0.12 L -1.56,0 L -1.44,0.06 L -1.32,0.06 L -1.2,0.12 L -1.02,0.18 C -0.702,0.167 -0.334,0.369 -0.06,0.12 L -0.06,0.06 L 0,0"
           id="path5709"
           style="fill:#fff500;fill-opacity:1;fill-rule:evenodd;stroke:none" />
      </g>
      <g
         transform="matrix(0,12.542336,12.542336,0,706.9809,2335.39)"
         id="g5711"
         style="fill:#fff500;fill-opacity:1">
        <path
           d="M 0,0 L 0.12,0 L 0.12,-0.06 L 0.18,-0.12 L 0.18,-0.3 L 0.12,-0.36 L 0.12,-0.42 L 0.06,-0.42 C -0.127,-0.637 -0.31,-0.654 -0.54,-0.78 L -7.98,-2.94 L -7.98,-2.46 L -7.62,-2.34 C -6.12,-1.842 -4.633,-1.278 -3.12,-0.78 L -2.7,-0.6 L -2.34,-0.48 L -1.98,-0.36 C -1.575,-0.236 -1.157,-0.015 -0.78,0.06 L -0.6,0.06 L -0.48,0.12 L -0.24,0.12 L -0.18,0.06 L 0,0.06 L 0,0"
           id="path5713"
           style="fill:#fff500;fill-opacity:1;fill-rule:evenodd;stroke:none" />
      </g>
      <g
         transform="matrix(0,12.542336,12.542336,0,688.9203,2321.8442)"
         id="g5715"
         style="fill:#fff500;fill-opacity:1">
        <path
           d="M 0,0 L 0.24,0 L 0.24,-0.06 L 0.36,-0.06 L 0.36,-0.12 L 0.42,-0.18 L 0.42,-0.3 L 0.48,-0.3 L 0.42,-0.36 L 0.42,-0.42 L 0.36,-0.48 L 0.36,-0.54 L 0.3,-0.6 L 0.24,-0.6 L 0.18,-0.66 L 0.12,-0.72 L 0.06,-0.72 L -0.06,-0.78 L -0.12,-0.84 L -0.24,-0.84 C -0.667,-0.999 -1.352,-1.141 -1.8,-1.2 L -1.86,-1.26 L -6.9,-2.28 L -6.9,-1.74 L -6.54,-1.68 C -4.591,-1.124 -2.455,-0.508 -0.48,-0.12 L 0,0"
           id="path5717"
           style="fill:#fff500;fill-opacity:1;fill-rule:evenodd;stroke:none" />
      </g>
      <g
         transform="matrix(0,12.542336,12.542336,0,676.12637,2333.1326)"
         id="g5719"
         style="fill:#fff500;fill-opacity:1">
        <path
           d="M 0,0 L 0.6,0 L 0.66,-0.06 L 0.78,-0.06 L 0.78,-0.12 L 0.84,-0.12 L 0.9,-0.18 L 0.9,-0.3 L 0.96,-0.3 L 0.96,-0.42 L 0.9,-0.48 L 0.9,-0.54 L 0.84,-0.54 L 0.72,-0.66 L 0.6,-0.78 L 0.54,-0.78 L 0.42,-0.84 L 0.3,-0.84 L 0.24,-0.9 L 0.12,-0.96 L -0.12,-0.96 L -0.24,-1.02 L -0.48,-1.08 L -0.72,-1.08 L -0.96,-1.14 L -1.2,-1.2 L -1.62,-1.26 L -1.98,-1.26 L -7.8,-2.1 L -7.8,-1.5 L -7.32,-1.38 C -5.028,-1.009 -2.764,-0.481 -0.48,-0.06 L 0,0"
           id="path5721"
           style="fill:#fff500;fill-opacity:1;fill-rule:evenodd;stroke:none" />
      </g>
      <g
         transform="matrix(0,12.542336,12.542336,0,660.32314,2363.2336)"
         id="g5723"
         style="fill:#fff500;fill-opacity:1">
        <path
           d="M 0,0 L 0.12,0.06 L 0.6,0.06 L 0.72,0 L 0.9,0 L 0.96,-0.06 L 1.02,-0.06 L 1.08,-0.12 L 1.14,-0.12 L 1.14,-0.18 L 1.2,-0.24 L 1.2,-0.36 L 1.26,-0.36 L 1.26,-0.42 L 1.2,-0.48 L 1.2,-0.54 L 1.14,-0.6 L 1.14,-0.66 L 1.08,-0.66 L 0.96,-0.78 L 0.9,-0.78 L 0.9,-0.84 L 0.78,-0.84 L 0.66,-0.9 L 0.48,-0.9 L 0.42,-0.96 L 0.06,-0.96 C -0.338,-1.017 -0.742,-0.995 -1.14,-1.08 L -1.38,-1.08 L -10.2,-1.62 L -10.2,-1.08 L -9.54,-1.02 C -6.565,-0.666 -3.588,-0.32 -0.6,-0.06 L 0,0"
           id="path5725"
           style="fill:#fff500;fill-opacity:1;fill-rule:evenodd;stroke:none" />
      </g>
    </g>
    <g
       transform="matrix(0,-1.25,-1.25,0,2993.1493,1324.8434)"
       id="g3707">
      <g
         transform="matrix(0,12.542336,12.542336,0,785.24512,1835.7029)"
         id="g5831"
         style="fill:#fff500;fill-opacity:1">
        <path
           d="M 0,0 L -0.06,-0.06 L -0.06,-0.12 L -0.12,-0.18 L -0.12,-0.54 L -0.06,-0.6 L -0.06,-0.72 L 0.06,-0.84 L 0.12,-0.96 L 0.18,-1.02 L 0.24,-1.14 C 0.662,-1.495 1.106,-1.884 1.62,-2.16 L 1.8,-2.22 L 12.6,-7.38 L 12.54,-6.36 L 2.82,-0.36 L 2.58,-0.24 L 2.34,-0.12 L 2.16,-0.06 L 1.92,0.06 L 1.74,0.12 L 1.5,0.18 L 1.38,0.18 L 1.32,0.24 L 1.14,0.24 L 1.02,0.3 L 0.48,0.3 L 0.42,0.24 L 0.3,0.24 L 0.24,0.18 L 0.18,0.18 L 0.12,0.12 L 0,0"
           id="path5833"
           style="fill:#fff500;fill-opacity:1;fill-rule:evenodd;stroke:none" />
      </g>
      <g
         transform="matrix(0,12.542336,12.542336,0,780.73038,1901.9264)"
         id="g5835"
         style="fill:#fff500;fill-opacity:1">
        <path
           d="M 0,0 L 0,-0.12 L -0.06,-0.18 L -0.06,-0.3 L 0,-0.36 L 0,-0.48 L 0.06,-0.54 L 0.06,-0.6 L 0.12,-0.66 L 0.12,-0.72 L 0.18,-0.72 L 0.3,-0.84 L 0.3,-0.9 L 0.42,-1.02 L 0.54,-1.14 L 0.66,-1.26 L 0.84,-1.38 L 1.08,-1.56 L 1.38,-1.8 L 7.32,-5.64 L 7.26,-4.5 L 1.5,-0.12 L 1.44,-0.06 L 1.38,-0.06 L 1.26,0 L 1.2,0.06 L 1.08,0.12 L 0.96,0.12 L 0.72,0.24 C 0.6,0.24 0.48,0.24 0.36,0.24 L 0.24,0.24 L 0.24,0.18 L 0.12,0.18 L 0.12,0.12 L 0.06,0.12 L 0.06,0.06 L 0,0"
           id="path5837"
           style="fill:#fff500;fill-opacity:1;fill-rule:evenodd;stroke:none" />
      </g>
      <g
         transform="matrix(0,12.542336,12.542336,0,737.08353,1882.3603)"
         id="g5847"
         style="fill:#fff500;fill-opacity:1">
        <path
           d="M 0,0 L -0.36,0 L -0.42,-0.06 L -0.48,-0.06 L -0.54,-0.12 L -0.6,-0.12 L -0.6,-0.18 L -0.66,-0.18 L -0.66,-0.24 L -0.72,-0.3 L -0.72,-0.48 L -0.66,-0.54 L -0.66,-0.66 L -0.6,-0.72 L -0.6,-0.78 L -0.48,-0.9 L -0.42,-0.96 L -0.36,-0.96 L -0.24,-1.02 L -0.18,-1.08 L -0.06,-1.14 L 0.36,-1.38 C 2.86,-2.315 5.334,-3.328 7.86,-4.2 L 8.4,-4.38 L 8.88,-4.62 L 8.88,-3.9 L 2.52,-0.96 L 0.3,-0.06 L 0,0"
           id="path5849"
           style="fill:#fff500;fill-opacity:1;fill-rule:evenodd;stroke:none" />
      </g>
      <g
         transform="matrix(0,12.542336,12.542336,0,705.47708,1892.1434)"
         id="g5851"
         style="fill:#fff500;fill-opacity:1">
        <path
           d="M 0,0 L 0,-0.3 L 0.06,-0.36 L 0.06,-0.42 L 0.12,-0.42 L 0.18,-0.48 L 0.24,-0.54 L 0.3,-0.54 L 0.42,-0.66 L 0.6,-0.72 L 8.1,-2.82 L 8.1,-2.34 L 0.84,0.24 C 0.66,0.24 0.48,0.24 0.3,0.24 L 0.24,0.24 L 0.24,0.18 L 0.18,0.18 L 0.12,0.12 L 0.06,0.12 L 0,0.06 L 0,0"
           id="path5853"
           style="fill:#fff500;fill-opacity:1;fill-rule:evenodd;stroke:none" />
      </g>
      <g
         transform="matrix(0,12.542336,12.542336,0,685.91102,1900.4214)"
         id="g5855"
         style="fill:#fff500;fill-opacity:1">
        <path
           d="M 0,0 L 0,-0.24 L 0.06,-0.3 L 0.18,-0.42 L 0.3,-0.42 L 0.3,-0.48 L 0.48,-0.54 C 2.586,-1.19 4.941,-1.478 7.08,-1.98 L 7.44,-2.04 L 7.44,-1.62 L 7.08,-1.5 L 6.66,-1.38 C 5.345,-0.981 4.015,-0.682 2.7,-0.3 L 2.22,-0.18 L 1.8,-0.06 C 1.351,0.123 0.635,0.204 0.12,0.18 L 0.06,0.12 L 0,0.12 L 0,0"
           id="path5857"
           style="fill:#fff500;fill-opacity:1;fill-rule:evenodd;stroke:none" />
      </g>
      <g
         transform="matrix(0,12.542336,12.542336,0,676.12637,1895.9062)"
         id="g5859"
         style="fill:#fff500;fill-opacity:1">
        <path
           d="M 0,0 L -0.66,0 L -0.72,-0.06 L -0.78,-0.06 L -0.9,-0.18 L -0.96,-0.24 L -0.96,-0.36 L -0.9,-0.42 L -0.9,-0.54 L -0.78,-0.66 L -0.72,-0.66 L -0.72,-0.72 L -0.66,-0.72 L -0.6,-0.78 C 0.374,-1.152 1.454,-1.188 2.46,-1.44 L 3,-1.5 L 3.48,-1.56 C 4.582,-1.693 5.678,-1.848 6.78,-1.98 L 7.26,-2.04 L 7.8,-2.1 L 7.8,-1.56 L 0,0"
           id="path5861"
           style="fill:#fff500;fill-opacity:1;fill-rule:evenodd;stroke:none" />
      </g>
      <g
         transform="matrix(0,12.542336,12.542336,0,661.82859,1864.2994)"
         id="g5863"
         style="fill:#fff500;fill-opacity:1">
        <path
           d="M 0,0 L -0.18,0 L -0.3,-0.06 L -0.66,-0.06 L -0.72,-0.12 L -0.84,-0.12 L -0.9,-0.18 L -0.96,-0.18 L -0.96,-0.24 L -1.02,-0.3 L -1.02,-0.66 L -0.9,-0.78 L -0.9,-0.84 C -0.785,-0.927 -0.634,-0.999 -0.48,-1.02 L -0.42,-1.08 L -0.3,-1.08 L -0.24,-1.14 C 0.437,-1.165 1.114,-1.282 1.8,-1.32 L 2.52,-1.38 L 3.36,-1.38 C 5.248,-1.569 7.072,-1.55 8.94,-1.68 L 9.54,-1.68 L 10.02,-1.74 L 10.32,-1.74 L 10.32,-1.26 L 9.66,-1.2 C 6.653,-0.822 3.596,-0.521 0.6,-0.06 L 0,0"
           id="path5865"
           style="fill:#fff500;fill-opacity:1;fill-rule:evenodd;stroke:none" />
      </g>
      <g
         transform="matrix(0,12.542336,12.542336,0,641.51063,1812.3742)"
         id="g5867"
         style="fill:#fff500;fill-opacity:1">
        <path
           d="M 0,0 L -0.12,0 L -0.24,-0.06 L -0.36,-0.06 L -0.48,-0.12 L -0.6,-0.18 L -0.66,-0.18 L -0.78,-0.24 L -0.84,-0.3 L -0.96,-0.36 L -1.02,-0.42 L -1.14,-0.54 L -1.2,-0.66 L -1.32,-0.78 L -1.32,-1.08 L -1.26,-1.14 L -1.26,-1.26 L -1.2,-1.32 L -1.2,-1.38 L -1.14,-1.38 L -1.14,-1.44 L -1.08,-1.5 L -1.02,-1.56 L -0.96,-1.56 L -0.96,-1.62 C -0.776,-1.786 0.056,-2.035 0.3,-2.04 L 14.46,-1.2 L 14.46,-0.36 L 0,0"
           id="path5869"
           style="fill:#fff500;fill-opacity:1;fill-rule:evenodd;stroke:none" />
      </g>
      <g
         transform="matrix(0,12.542336,12.542336,0,623.45003,1993.7363)"
         id="g5871"
         style="fill:#fff500;fill-opacity:1">
        <path
           d="M 0,0 L -10.5,-0.96 L -10.56,-1.02 L -10.62,-1.02 L -10.68,-1.08 L -10.8,-1.08 L -10.86,-1.14 L -10.92,-1.14 L -10.98,-1.2 C -11.256,-1.498 -11.004,-1.142 -11.28,-1.44 L -11.28,-1.56 L -11.34,-1.56 L -11.34,-1.8 L -11.28,-1.8 L -11.28,-1.92 L -11.22,-1.92 L -11.16,-1.98 L -11.16,-2.04 L -11.1,-2.04 L -11.04,-2.1 L -10.86,-2.1 L -10.8,-2.16 L -10.26,-2.16 L 0,-0.6 L 0,0"
           id="path5873"
           style="fill:#fff500;fill-opacity:1;fill-rule:evenodd;stroke:none" />
      </g>
      <g
         transform="matrix(0,12.542336,12.542336,0,594.10095,1993.7363)"
         id="g5875"
         style="fill:#fff500;fill-opacity:1">
        <path
           d="M 0,0 L -0.48,-0.12 L -1.02,-0.3 C -2.7,-0.697 -4.111,-1.271 -5.7,-1.68 L -6.24,-1.86 L -6.66,-2.04 L -6.9,-2.1 L -7.26,-2.22 L -7.44,-2.34 L -7.68,-2.46 L -7.8,-2.52 L -7.86,-2.52 L -7.98,-2.64 L -8.04,-2.76 L -8.1,-2.76 L -8.1,-2.82 L -8.16,-2.88 L -8.16,-3.06 L -8.1,-3.06 L -8.1,-3.12 L -8.04,-3.18 L -7.98,-3.18 L -7.92,-3.24 L -7.56,-3.24 L -7.08,-3.12 L -6.78,-3.06 L -6.54,-3 L -6,-2.82 C -4.246,-2.282 -2.611,-1.556 -0.9,-0.9 L -0.48,-0.72 L 0,-0.54 L 0,0"
           id="path5877"
           style="fill:#fff500;fill-opacity:1;fill-rule:evenodd;stroke:none" />
      </g>
      <g
         transform="matrix(0,12.542336,12.542336,0,588.08075,1883.1129)"
         id="g5879"
         style="fill:#fff500;fill-opacity:1">
        <path
           d="M 0,0 L 0,-0.06 L 0.06,-0.12 L 0.12,-0.12 L 0.12,-0.18 L 0.18,-0.18 L 0.18,-0.24 L 0.24,-0.24 C 0.4,-0.24 0.56,-0.24 0.72,-0.24 L 8.82,1.44 L 8.82,1.92 L 0.54,0.6 L 0.42,0.54 L 0.36,0.48 L 0.24,0.42 L 0.18,0.36 L 0.18,0.24 L 0.12,0.24 L 0.12,0.18 L 0.06,0.12 L 0,0"
           id="path5881"
           style="fill:#fff500;fill-opacity:1;fill-rule:evenodd;stroke:none" />
      </g>
      <g
         transform="matrix(0,12.542336,12.542336,0,584.31792,1994.4889)"
         id="g5883"
         style="fill:#fff500;fill-opacity:1">
        <path
           d="M 0,0 L -9.18,-3.66 L -9.3,-3.72 L -9.42,-3.78 L -9.48,-3.84 L -9.48,-3.9 L -9.54,-3.96 L -9.6,-4.02 L -9.6,-4.08 L -9.66,-4.14 C -9.66,-4.24 -9.66,-4.34 -9.66,-4.44 L -9.6,-4.5 L -9.6,-4.56 L -9.54,-4.56 L -9.48,-4.62 L -9.42,-4.62 L -9.42,-4.68 L -9.18,-4.68 L -9.12,-4.74 L -8.94,-4.74 L -8.82,-4.68 L -8.64,-4.68 L -8.58,-4.62 L -8.4,-4.62 L -8.16,-4.56 L 0.06,-0.6 L 0,0"
           id="path5885"
           style="fill:#fff500;fill-opacity:1;fill-rule:evenodd;stroke:none" />
      </g>
      <g
         transform="matrix(0,12.542336,12.542336,0,576.03871,1902.679)"
         id="g5887"
         style="fill:#fff500;fill-opacity:1">
        <path
           d="M 0,0 L 0.06,-0.06 L 0.12,-0.12 L 0.18,-0.12 L 0.24,-0.18 L 0.72,-0.18 L 1.14,-0.06 L 1.56,0.06 L 1.92,0.18 L 2.34,0.3 C 3.721,0.6 5.058,1.044 6.42,1.44 L 6.84,1.56 L 7.26,1.68 L 7.26,2.1 L 6.84,2.04 L 6.42,1.92 C 5.226,1.6 4.015,1.383 2.82,1.08 L 2.34,0.96 L 1.86,0.84 L 1.44,0.72 L 1.08,0.6 L 0.78,0.54 L 0.66,0.48 L 0.6,0.48 L 0.48,0.42 L 0.42,0.42 L 0.36,0.36 L 0.24,0.3 L 0.18,0.3 L 0.18,0.24 L 0.12,0.24 L 0.12,0.18 L 0.06,0.18 L 0.06,0.06 L 0,0"
           id="path5889"
           style="fill:#fff500;fill-opacity:1;fill-rule:evenodd;stroke:none" />
      </g>
      <g
         transform="matrix(0,12.542336,12.542336,0,573.78135,1995.994)"
         id="g5891"
         style="fill:#fff500;fill-opacity:1">
        <path
           d="M 0,0 L -1.02,-0.6 L -2.04,-1.08 L -2.94,-1.56 C -5.806,-3.073 -8.74,-4.452 -11.52,-6.12 L -12.12,-6.48 L -12.24,-6.6 L -12.36,-6.72 L -12.36,-6.84 L -12.48,-6.96 L -12.48,-7.02 L -12.54,-7.08 L -12.54,-7.5 L -12.48,-7.56 L -12.48,-7.62 L -12.36,-7.74 L -12.3,-7.8 L -12.24,-7.86 L -12.12,-7.92 L -12.06,-7.92 L -12,-7.98 L -11.94,-7.98 L -11.82,-8.04 L -11.58,-8.04 C -11.086,-8.029 -11.369,-8.108 -10.86,-7.86 L -10.56,-7.68 L -10.26,-7.56 L -9.96,-7.38 C -6.848,-5.503 -3.754,-3.426 -0.66,-1.5 L 0.06,-1.14 L 0.36,-0.96 L 0.3,-0.84 L 0.3,-0.72 L 0.24,-0.6 L 0.18,-0.48 L 0.18,-0.36 L 0.12,-0.24 L 0.06,-0.12 L 0,0"
           id="path5893"
           style="fill:#fff500;fill-opacity:1;fill-rule:evenodd;stroke:none" />
      </g>
      <g
         transform="matrix(0,12.542336,12.542336,0,551.20602,2005.777)"
         id="g5895"
         style="fill:#fff500;fill-opacity:1">
        <path
           d="M 0,0 L -0.36,0.6 L -0.78,0.3 C -3.104,-1.295 -5.48,-2.733 -7.8,-4.32 L -8.22,-4.56 L -8.22,-4.62 L -8.28,-4.68 L -8.34,-4.74 L -8.34,-4.8 L -8.4,-4.86 L -8.4,-4.98 L -8.46,-5.04 L -8.46,-5.28 L -8.4,-5.34 L -8.4,-5.4 L -8.34,-5.46 L -8.34,-5.52 L -8.28,-5.58 L -8.16,-5.7 L -8.04,-5.7 L -7.98,-5.76 L -7.62,-5.76 L -7.56,-5.7 L -7.44,-5.7 L -7.14,-5.52 L -6.84,-5.28 L -6.48,-4.98 L -6.06,-4.68 L -5.58,-4.32 C -4.223,-3.234 -2.797,-2.235 -1.44,-1.14 L -0.96,-0.72 L 0,0"
           id="path5897"
           style="fill:#fff500;fill-opacity:1;fill-rule:evenodd;stroke:none" />
      </g>
      <g
         transform="matrix(0,12.542336,12.542336,0,547.44318,2006.5296)"
         id="g5899"
         style="fill:#fff500;fill-opacity:1">
        <path
           d="M 0,0 L -0.3,-0.18 L -0.6,-0.48 C -2.057,-1.591 -3.488,-2.75 -4.86,-3.96 L -5.1,-4.2 L -5.16,-4.26 L -5.28,-4.38 L -5.28,-4.44 L -5.34,-4.5 L -5.4,-4.56 L -5.4,-4.62 L -5.46,-4.68 L -5.46,-4.98 L -5.4,-5.04 L -5.4,-5.1 L -5.28,-5.1 C -4.606,-5.135 -4.786,-4.977 -4.2,-4.56 L -3.6,-4.08 C -2.484,-3.06 -1.401,-2.056 -0.3,-1.02 L 0,-0.72 L 0.3,-0.48 L 0,0"
           id="path5901"
           style="fill:#fff500;fill-opacity:1;fill-rule:evenodd;stroke:none" />
      </g>
      <g
         transform="matrix(0,12.542336,12.542336,0,537.66015,2011.7974)"
         id="g5903"
         style="fill:#fff500;fill-opacity:1">
        <path
           d="M 0,0 L -0.24,-0.24 L -0.48,-0.42 C -1.113,-1.055 -1.766,-1.646 -2.4,-2.28 L -2.7,-2.52 L -2.94,-2.76 L -3.18,-3.06 L -3.42,-3.24 L -3.6,-3.48 L -3.96,-3.84 L -4.02,-3.9 L -4.02,-4.08 L -4.08,-4.08 L -4.08,-4.2 L -4.02,-4.26 L -4.02,-4.32 L -3.96,-4.38 L -3.9,-4.44 L -3.48,-4.44 L -3.42,-4.38 L -3.36,-4.38 L -3.12,-4.14 C -2.083,-3.108 -1.121,-2.017 -0.12,-0.96 L 0.36,-0.48 L 0,0"
           id="path5905"
           style="fill:#fff500;fill-opacity:1;fill-rule:evenodd;stroke:none" />
      </g>
      <g
         transform="matrix(0,12.542336,12.542336,0,529.38259,2018.5702)"
         id="g5907"
         style="fill:#fff500;fill-opacity:1">
        <path
           d="M 0,0 L -0.3,-0.36 C -1.664,-1.791 -3.142,-3.39 -4.38,-4.92 L -4.38,-4.98 L -4.44,-4.98 L -4.44,-5.04 L -4.5,-5.1 L -4.5,-5.28 L -4.44,-5.28 L -4.44,-5.34 L -4.32,-5.34 L -4.26,-5.4 L -4.08,-5.4 L -4.02,-5.34 L -3.96,-5.34 L -3.84,-5.28 L -3.78,-5.22 L -3.72,-5.16 L -3.48,-4.92 L -3.36,-4.8 C -2.239,-3.57 -1.225,-2.247 -0.18,-0.96 L 0.06,-0.6 L 0.3,-0.3 L 0.06,-0.06 L 0,0"
           id="path5909"
           style="fill:#fff500;fill-opacity:1;fill-rule:evenodd;stroke:none" />
      </g>
      <g
         transform="matrix(0,12.542336,12.542336,0,522.60884,2024.5905)"
         id="g5911"
         style="fill:#fff500;fill-opacity:1">
        <path
           d="M 0,0 L -0.36,-0.42 C -1.899,-2.424 -3.668,-4.438 -5.16,-6.48 L -5.34,-6.6 L -5.34,-6.72 L -5.4,-6.84 L -5.4,-6.96 L -5.46,-7.02 L -5.46,-7.14 L -5.4,-7.2 L -5.4,-7.32 L -5.34,-7.32 L -5.34,-7.38 L -5.28,-7.44 L -5.22,-7.44 C -5.1,-7.44 -4.98,-7.44 -4.86,-7.44 L -4.8,-7.38 L -4.74,-7.38 L -4.68,-7.32 L -4.62,-7.32 L -4.56,-7.26 L -4.5,-7.2 L -4.38,-7.14 L -4.32,-7.02 L -4.14,-6.9 L -4.02,-6.72 L -3.84,-6.54 C -2.508,-4.895 -1.222,-2.987 -0.06,-1.2 L 0.24,-0.78 L 0.48,-0.36 L 0,0"
           id="path5913"
           style="fill:#fff500;fill-opacity:1;fill-rule:evenodd;stroke:none" />
      </g>
    </g>
    <g
       transform="matrix(0,-1.25,-1.25,0,2993.1493,1324.8434)"
       id="g3747">
      <g
         transform="matrix(0,12.542336,12.542336,0,643.768,2401.6138)"
         id="g5727"
         style="fill:#fff500;fill-opacity:1">
        <path
           d="M 0,0 L 0.3,0 L 0.48,-0.06 L 0.72,-0.06 L 0.9,-0.12 L 1.14,-0.12 L 1.2,-0.18 L 1.32,-0.18 L 1.44,-0.24 L 1.56,-0.24 L 1.68,-0.3 L 1.74,-0.3 L 1.86,-0.36 L 1.92,-0.42 L 2.04,-0.42 L 2.1,-0.48 L 2.22,-0.54 L 2.28,-0.6 L 2.4,-0.72 L 2.52,-0.84 L 2.52,-0.96 L 2.58,-1.02 L 2.58,-1.26 L 2.52,-1.38 L 2.46,-1.44 L 2.46,-1.5 L 2.4,-1.56 L 2.28,-1.68 L 2.22,-1.74 L 2.16,-1.74 L 2.1,-1.8 L 1.98,-1.92 L 1.92,-1.92 L 1.86,-1.98 L 1.74,-1.98 L 1.68,-2.04 L 1.62,-2.04 L 1.5,-2.1 L 1.38,-2.1 L 1.2,-2.16 L 1.02,-2.16 L 0.84,-2.22 L 0.36,-2.22 L -13.26,-1.38 L -13.26,-0.54 L -12.42,-0.48 C -8.554,-0.336 -4.657,-0.015 -0.78,-0.06 L 0,0"
           id="path5729"
           style="fill:#fff500;fill-opacity:1;fill-rule:evenodd;stroke:none" />
      </g>
      <g
         transform="matrix(0,12.542336,12.542336,0,623.45003,2235.3024)"
         id="g5731"
         style="fill:#fff500;fill-opacity:1">
        <path
           d="M 0,0 L 0.3,0 L 1.2,-0.06 C 3.938,-0.474 6.946,-0.468 9.72,-0.9 L 9.84,-0.9 L 10.02,-0.96 L 10.14,-0.96 L 10.32,-1.02 L 10.44,-1.08 L 10.56,-1.08 L 10.68,-1.14 L 10.86,-1.2 L 10.92,-1.26 L 11.04,-1.32 L 11.16,-1.38 L 11.22,-1.44 L 11.28,-1.5 L 11.34,-1.56 L 11.34,-1.62 L 11.4,-1.74 L 11.34,-1.8 L 11.34,-1.86 L 11.28,-1.92 C 10.915,-2.034 11.116,-2.125 10.68,-2.1 L 10.56,-2.16 L 10.44,-2.16 C 9.996,-2.147 9.565,-2.102 9.12,-2.04 L 8.82,-1.98 L 8.58,-1.98 L 8.34,-1.92 C 6.129,-1.542 3.907,-1.237 1.68,-0.84 L 0,-0.6 L 0,0"
           id="path5733"
           style="fill:#fff500;fill-opacity:1;fill-rule:evenodd;stroke:none" />
      </g>
      <g
         transform="matrix(0,12.542336,12.542336,0,594.10095,2235.3024)"
         id="g5735"
         style="fill:#fff500;fill-opacity:1">
        <path
           d="M 0,0 L 0.42,-0.12 L 0.78,-0.24 C 2.683,-0.832 4.609,-1.371 6.48,-2.04 L 6.78,-2.1 L 6.9,-2.1 L 7.08,-2.16 L 7.2,-2.22 L 7.38,-2.28 L 7.44,-2.34 L 7.5,-2.34 L 7.62,-2.4 L 7.68,-2.46 L 7.74,-2.46 L 7.8,-2.52 C 7.912,-2.623 8.022,-2.738 8.04,-2.88 L 8.04,-3.06 L 7.98,-3.06 L 7.92,-3.12 L 7.86,-3.12 L 7.86,-3.18 L 7.8,-3.18 C 6.29,-3.246 2.107,-1.069 0.36,-0.66 L 0,-0.48 L 0,0"
           id="path5737"
           style="fill:#fff500;fill-opacity:1;fill-rule:evenodd;stroke:none" />
      </g>
      <g
         transform="matrix(0,12.542336,12.542336,0,586.57529,2345.925)"
         id="g5739"
         style="fill:#fff500;fill-opacity:1">
        <path
           d="M 0,0 L -0.06,0 L -0.06,-0.06 L -0.12,-0.06 L -0.18,-0.12 L -0.42,-0.12 L -0.48,-0.18 L -0.66,-0.18 L -0.78,-0.12 C -1.185,-0.161 -1.695,0.071 -2.1,0.12 L -6.72,1.08 L -8.82,1.56 L -8.82,2.04 L -3.96,1.2 L -3.72,1.2 C -2.929,0.931 -2.111,1.061 -1.26,0.72 L -1.08,0.72 L -0.96,0.66 L -0.78,0.6 L -0.66,0.6 L -0.42,0.48 L -0.3,0.42 L -0.24,0.36 L -0.18,0.3 L -0.12,0.3 L -0.06,0.24 L 0,0.18 L 0,0"
           id="path5741"
           style="fill:#fff500;fill-opacity:1;fill-rule:evenodd;stroke:none" />
      </g>
      <g
         transform="matrix(0,12.542336,12.542336,0,584.31792,2235.3024)"
         id="g5743"
         style="fill:#fff500;fill-opacity:1">
        <path
           d="M 0,0 L 0.42,-0.18 L 0.78,-0.3 C 2.983,-1.182 5.169,-2.073 7.38,-2.94 L 7.74,-3.06 L 8.04,-3.18 L 8.34,-3.3 L 8.52,-3.36 L 8.64,-3.48 L 9,-3.6 L 9.06,-3.66 L 9.12,-3.66 L 9.18,-3.72 L 9.3,-3.84 L 9.42,-3.96 L 9.54,-4.08 L 9.54,-4.2 L 9.6,-4.26 L 9.6,-4.38 L 9.54,-4.38 L 9.54,-4.5 L 9.48,-4.56 C 9.058,-4.707 9.443,-4.68 8.94,-4.68 L 8.76,-4.68 C 8.498,-4.689 8.278,-4.572 8.04,-4.5 L 7.92,-4.5 L 7.74,-4.38 L 7.56,-4.32 C 5.313,-3.203 3.002,-2.065 0.72,-1.02 L 0.3,-0.78 L -0.12,-0.6 L -0.12,-0.3 L -0.06,-0.12 L 0,0"
           id="path5745"
           style="fill:#fff500;fill-opacity:1;fill-rule:evenodd;stroke:none" />
      </g>
      <g
         transform="matrix(0,12.542336,12.542336,0,597.86378,2235.3024)"
         id="g5747"
         style="fill:#fff500;fill-opacity:1">
        <path
           d="M 0,0 L 0,0.36 L 0.72,0.24 C 2.411,-0.147 4.14,-0.599 5.82,-0.96 L 6.18,-1.08 L 6.24,-1.08 L 6.36,-1.14 L 6.42,-1.14 L 6.54,-1.2 L 6.6,-1.2 L 6.66,-1.26 L 6.72,-1.32 L 6.84,-1.32 C 6.94,-1.42 7.04,-1.52 7.14,-1.62 L 7.14,-1.8 L 7.08,-1.8 L 7.08,-1.86 L 7.02,-1.86 L 6.96,-1.92 L 6.36,-1.92 L 6.24,-1.86 L 6,-1.86 L 5.94,-1.8 L 5.58,-1.68 L 5.16,-1.62 C 3.673,-1.101 2.232,-0.759 0.72,-0.24 L 0,0"
           id="path5749"
           style="fill:#fff500;fill-opacity:1;fill-rule:evenodd;stroke:none" />
      </g>
      <g
         transform="matrix(0,12.542336,12.542336,0,573.78135,2232.2915)"
         id="g5751"
         style="fill:#fff500;fill-opacity:1">
        <path
           d="M 0,0 L 0.78,-0.36 L 1.5,-0.78 C 4.251,-2.089 7.056,-3.503 9.72,-4.98 L 10.44,-5.4 L 10.8,-5.58 C 11.648,-6.047 12.004,-6.162 12.54,-6.9 L 12.6,-7.02 L 12.6,-7.08 L 12.66,-7.08 L 12.66,-7.26 L 12.72,-7.32 L 12.72,-7.44 L 12.66,-7.5 L 12.66,-7.56 L 12.6,-7.62 L 12.6,-7.68 L 12.54,-7.74 L 12.42,-7.86 L 12.36,-7.86 C 12.132,-8.055 12.004,-7.956 11.7,-7.98 L 11.4,-7.98 L 11.34,-7.92 L 11.28,-7.92 L 11.1,-7.86 L 10.74,-7.74 L 10.56,-7.68 L 10.44,-7.62 L 10.26,-7.56 L 9.6,-7.14 L 8.94,-6.78 L 7.62,-5.94 C 5.647,-4.671 3.647,-3.518 1.68,-2.22 L -0.3,-0.96 L -0.24,-0.84 L -0.24,-0.72 L -0.18,-0.6 L -0.12,-0.48 L -0.12,-0.36 L -0.06,-0.24 L 0,-0.12 L 0,0"
           id="path5753"
           style="fill:#fff500;fill-opacity:1;fill-rule:evenodd;stroke:none" />
      </g>
      <g
         transform="matrix(0,12.542336,12.542336,0,551.20602,2224.0139)"
         id="g5755"
         style="fill:#fff500;fill-opacity:1">
        <path
           d="M 0,0 L 0.3,0.6 L 1.26,0 L 2.22,-0.66 L 4.2,-1.92 C 4.719,-2.137 5.142,-2.51 5.64,-2.76 L 5.94,-2.94 L 6.18,-3.06 C 6.693,-3.461 7.08,-3.73 7.62,-4.08 L 7.68,-4.2 L 7.8,-4.26 L 7.92,-4.38 C 8.35,-4.808 8.436,-4.862 8.4,-5.46 L 8.34,-5.52 L 8.34,-5.58 L 8.28,-5.58 L 8.28,-5.64 L 8.22,-5.64 L 8.16,-5.7 L 8.16,-5.76 L 8.04,-5.76 C 7.533,-5.79 7.812,-5.687 7.5,-5.7 L 7.44,-5.64 L 7.32,-5.64 L 7.2,-5.58 L 7.14,-5.52 L 7.02,-5.52 L 6.96,-5.46 L 6.9,-5.4 L 6.84,-5.4 L 3.36,-2.7 L 0,0"
           id="path5757"
           style="fill:#fff500;fill-opacity:1;fill-rule:evenodd;stroke:none" />
      </g>
      <g
         transform="matrix(0,12.542336,12.542336,0,547.44318,2222.5084)"
         id="g5759"
         style="fill:#fff500;fill-opacity:1">
        <path
           d="M 0,0 L 0.3,-0.18 L 0.6,-0.42 C 1.133,-0.98 2.071,-1.534 2.58,-2.1 L 2.94,-2.34 L 3.3,-2.64 C 3.844,-3.157 4.572,-3.785 5.16,-4.26 L 5.22,-4.38 L 5.28,-4.5 L 5.34,-4.5 L 5.34,-4.56 L 5.4,-4.62 L 5.4,-4.74 L 5.46,-4.8 L 5.46,-4.92 L 5.4,-4.98 L 5.4,-5.1 L 5.28,-5.1 L 5.22,-5.16 L 5.04,-5.16 L 4.98,-5.1 L 4.86,-5.1 L 4.8,-5.04 L 4.74,-5.04 L 4.62,-4.98 L 4.56,-4.92 L 4.32,-4.8 L 4.02,-4.56 L 3.72,-4.26 C 2.503,-3.242 1.379,-2.116 0.24,-1.02 L -0.3,-0.48 L -0.24,-0.42 L -0.24,-0.36 L -0.12,-0.24 L -0.06,-0.12 L 0,0"
           id="path5761"
           style="fill:#fff500;fill-opacity:1;fill-rule:evenodd;stroke:none" />
      </g>
      <g
         transform="matrix(0,12.542336,12.542336,0,537.66015,2217.2401)"
         id="g5763"
         style="fill:#fff500;fill-opacity:1">
        <path
           d="M 0,0 L 0.24,-0.24 C 1.474,-1.369 2.717,-2.59 3.9,-3.78 L 3.9,-3.84 L 3.96,-3.84 L 3.96,-3.9 L 4.02,-3.96 L 4.02,-4.26 L 3.96,-4.32 L 3.96,-4.38 L 3.84,-4.38 L 3.84,-4.44 L 3.72,-4.44 L 3.66,-4.38 L 3.54,-4.38 L 3.48,-4.32 L 3.42,-4.32 L 3.3,-4.26 L 3.24,-4.2 L 3,-4.02 L 2.76,-3.78 L 2.46,-3.54 L 2.22,-3.3 C 1.433,-2.506 0.744,-1.717 0.06,-0.84 L -0.12,-0.6 L -0.36,-0.36 L 0,0"
           id="path5765"
           style="fill:#fff500;fill-opacity:1;fill-rule:evenodd;stroke:none" />
      </g>
      <g
         transform="matrix(0,12.542336,12.542336,0,529.38259,2210.468)"
         id="g5767"
         style="fill:#fff500;fill-opacity:1">
        <path
           d="M 0,0 L 0.24,-0.3 L 0.48,-0.6 C 1.082,-1.297 1.729,-1.952 2.34,-2.64 L 2.58,-2.94 L 2.88,-3.24 L 3.12,-3.54 L 3.42,-3.84 L 3.9,-4.44 L 4.2,-4.74 L 4.2,-4.8 L 4.26,-4.86 L 4.32,-4.98 L 4.38,-5.1 L 4.44,-5.1 L 4.44,-5.16 C 4.481,-5.509 4.311,-5.374 4.08,-5.4 L 4.02,-5.4 L 4.02,-5.34 L 3.96,-5.34 L 3.9,-5.28 L 3.84,-5.28 L 3.78,-5.22 L 3.72,-5.16 L 3.42,-4.86 L 3.24,-4.62 L 2.94,-4.32 L 2.7,-4.02 L 2.4,-3.66 C 1.667,-2.77 1.007,-1.898 0.24,-1.02 L -0.06,-0.66 L -0.3,-0.3 L 0,0"
           id="path5769"
           style="fill:#fff500;fill-opacity:1;fill-rule:evenodd;stroke:none" />
      </g>
      <g
         transform="matrix(0,12.542336,12.542336,0,522.60884,2203.6959)"
         id="g5771"
         style="fill:#fff500;fill-opacity:1">
        <path
           d="M 0,0 L 0.36,-0.36 C 2.062,-2.544 3.916,-4.713 5.52,-6.96 L 5.52,-7.08 L 5.58,-7.08 L 5.58,-7.44 L 5.46,-7.56 L 5.4,-7.56 L 5.34,-7.62 L 5.16,-7.62 L 5.1,-7.56 L 4.92,-7.56 L 4.86,-7.5 L 4.8,-7.5 L 4.74,-7.44 L 4.68,-7.38 L 4.56,-7.32 L 4.5,-7.26 L 4.14,-6.84 L 3.84,-6.42 L 3.54,-6 L 3.18,-5.58 L 2.58,-4.74 C 1.9,-3.685 1.138,-2.724 0.48,-1.68 L 0.18,-1.26 L -0.12,-0.84 L -0.42,-0.36 L 0,0"
           id="path5773"
           style="fill:#fff500;fill-opacity:1;fill-rule:evenodd;stroke:none" />
      </g>
      <g
         transform="matrix(0,12.542336,12.542336,0,514.33128,2194.6648)"
         id="g5775"
         style="fill:#fff500;fill-opacity:1">
        <path
           d="M 0,0 L 0.72,-0.96 C 2.663,-3.882 4.763,-6.678 6.42,-9.78 L 6.54,-9.96 L 6.72,-10.32 L 6.72,-10.92 C 6.696,-11.133 6.575,-11.274 6.48,-11.46 L 6.42,-11.52 L 6.3,-11.58 L 6.24,-11.58 L 6.24,-11.64 L 5.7,-11.64 L 5.46,-11.52 L 5.4,-11.52 C 5.023,-11.325 5.099,-11.415 4.8,-11.1 L 4.56,-10.74 L 4.44,-10.56 C 2.711,-7.651 1.307,-4.736 -0.24,-1.74 L -0.66,-0.9 L -0.84,-0.66 L -0.72,-0.54 L -0.12,-0.06 L 0,0"
           id="path5777"
           style="fill:#fff500;fill-opacity:1;fill-rule:evenodd;stroke:none" />
      </g>
      <g
         transform="matrix(0,12.542336,12.542336,0,503.7947,2181.119)"
         id="g5779"
         style="fill:#fff500;fill-opacity:1">
        <path
           d="M 0,0 L 0.48,-0.96 C 1.143,-2.36 2.008,-3.866 2.58,-5.28 L 3.3,-6.72 L 3.48,-7.2 L 3.72,-7.68 L 3.72,-8.1 L 3.66,-8.16 L 3.66,-8.22 L 3.6,-8.28 L 3.54,-8.28 L 3.54,-8.34 L 3.48,-8.34 C 3.204,-8.317 3.15,-8.417 3,-8.22 L 2.94,-8.22 L 2.94,-8.16 L 2.88,-8.1 L 2.82,-8.1 L 2.7,-7.92 C 1.471,-5.674 0.54,-3.026 -0.48,-0.66 L -0.6,-0.24 L -0.48,-0.18 L -0.3,-0.12 L -0.18,-0.06 L 0,0"
           id="path5781"
           style="fill:#fff500;fill-opacity:1;fill-rule:evenodd;stroke:none" />
      </g>
      <g
         transform="matrix(0,12.542336,12.542336,0,497.7745,2169.0786)"
         id="g5783"
         style="fill:#fff500;fill-opacity:1">
        <path
           d="M 0,0 L 0.24,-0.6 C 0.57,-1.539 0.942,-2.203 1.26,-3.18 L 1.44,-3.48 L 1.56,-3.84 C 1.716,-4.329 2.105,-4.959 2.04,-5.46 L 1.98,-5.52 L 1.98,-5.58 L 1.92,-5.58 L 1.8,-5.7 L 1.5,-5.7 L 1.44,-5.64 L 1.38,-5.64 L 1.32,-5.58 L 1.26,-5.58 L 1.26,-5.52 L 1.2,-5.46 C 0.93,-5.087 0.792,-4.578 0.6,-4.14 L 0.36,-3.54 C 0.114,-2.652 -0.193,-1.791 -0.42,-0.9 L -0.54,-0.54 L -0.6,-0.24 L -0.48,-0.18 L -0.3,-0.12 L -0.18,-0.06 L 0,0"
           id="path5785"
           style="fill:#fff500;fill-opacity:1;fill-rule:evenodd;stroke:none" />
      </g>
      <g
         transform="matrix(0,12.542336,12.542336,0,493.25977,2157.7901)"
         id="g5787"
         style="fill:#fff500;fill-opacity:1">
        <path
           d="M 0,0 L 0.06,-0.3 L 0.12,-0.54 C 0.459,-1.528 0.758,-2.599 1.08,-3.6 L 1.14,-3.84 L 1.2,-4.14 L 1.32,-4.38 L 1.32,-4.68 L 1.26,-4.74 L 1.26,-4.8 L 1.14,-4.92 L 0.96,-4.92 L 0.9,-4.86 L 0.84,-4.86 L 0.84,-4.8 L 0.78,-4.8 L 0.78,-4.74 L 0.72,-4.68 C 0.617,-4.596 0.446,-3.888 0.42,-3.78 L 0.3,-3.54 L 0.24,-3.24 C 0.049,-2.378 -0.214,-1.537 -0.36,-0.66 L -0.42,-0.42 L -0.48,-0.18 L 0,0"
           id="path5789"
           style="fill:#fff500;fill-opacity:1;fill-rule:evenodd;stroke:none" />
      </g>
      <g
         transform="matrix(0,12.542336,12.542336,0,489.49693,2147.2551)"
         id="g5791"
         style="fill:#fff500;fill-opacity:1">
        <path
           d="M 0,0 L 0.06,-0.3 L 0.12,-0.6 C 0.412,-1.607 0.562,-2.648 0.84,-3.66 L 0.96,-3.96 L 1.02,-4.26 L 1.08,-4.62 L 1.2,-4.92 L 1.2,-5.16 L 1.14,-5.22 L 1.14,-5.4 L 1.08,-5.46 L 1.08,-5.52 L 1.02,-5.58 L 0.96,-5.58 L 0.96,-5.64 L 0.9,-5.64 L 0.84,-5.7 L 0.66,-5.7 L 0.6,-5.64 L 0.48,-5.52 L 0.42,-5.46 L 0.36,-5.4 L 0.36,-5.34 L 0.3,-5.28 L 0.3,-5.22 L 0.18,-4.98 L 0.12,-4.62 C -0.031,-3.338 -0.293,-1.954 -0.48,-0.66 L -0.54,-0.36 L -0.54,-0.06 L -0.42,-0.06 L -0.3,0 L 0,0"
           id="path5793"
           style="fill:#fff500;fill-opacity:1;fill-rule:evenodd;stroke:none" />
      </g>
      <g
         transform="matrix(0,12.542336,12.542336,0,487.23956,2136.7186)"
         id="g5795"
         style="fill:#fff500;fill-opacity:1">
        <path
           d="M 0,0 L 0.06,-0.48 L 0.12,-1.02 C 0.444,-3.16 0.779,-5.473 0.96,-7.62 L 0.96,-7.98 L 0.9,-8.1 L 0.9,-8.16 L 0.84,-8.22 L 0.72,-8.34 L 0.66,-8.4 L 0.36,-8.4 L 0.3,-8.34 L 0.24,-8.34 L 0.12,-8.22 L 0.06,-8.22 L 0.06,-8.16 L 0,-8.1 L -0.06,-8.04 L -0.06,-7.98 L -0.12,-7.92 L -0.12,-7.86 L -0.18,-7.38 L -0.24,-6.96 L -0.3,-6.48 L -0.36,-6.06 L -0.36,-5.58 L -0.42,-5.1 C -0.555,-3.786 -0.686,-2.334 -0.72,-1.02 L -0.84,-0.06 L -0.72,-0.06 C -0.313,-0.074 -0.399,-0.053 -0.06,0 L 0,0"
           id="path5797"
           style="fill:#fff500;fill-opacity:1;fill-rule:evenodd;stroke:none" />
      </g>
      <g
         transform="matrix(0,12.542336,12.542336,0,514.33128,2034.3735)"
         id="g5915"
         style="fill:#fff500;fill-opacity:1">
        <path
           d="M 0,0 L -0.18,-0.24 L -0.3,-0.54 C -1.939,-2.978 -3.661,-5.379 -5.34,-7.8 L -5.58,-8.16 L -5.76,-8.46 C -6.321,-9.473 -6.809,-9.881 -6.72,-11.04 L -6.66,-11.16 L -6.66,-11.22 L -6.6,-11.22 L -6.6,-11.34 L -6.54,-11.34 L -6.54,-11.4 L -6.48,-11.46 L -6.42,-11.46 L -6.42,-11.52 L -6.36,-11.52 L -6.24,-11.64 L -6.12,-11.64 L -6.06,-11.7 L -5.7,-11.7 L -5.64,-11.64 L -5.52,-11.64 L -5.4,-11.58 L -5.34,-11.58 L -5.28,-11.52 L -5.16,-11.46 L -5.1,-11.4 L -4.98,-11.34 L -4.92,-11.28 L -4.8,-11.1 L -4.62,-10.98 L -4.56,-10.92 L -4.5,-10.8 L -4.44,-10.62 L -4.32,-10.5 L -4.08,-10.08 L -3.84,-9.54 L -3.54,-9 L -3.18,-8.34 C -2.231,-6.504 -1.35,-4.635 -0.36,-2.82 L 0.06,-2.04 L 0.42,-1.32 L 0.84,-0.66 L 0.72,-0.54 L 0.6,-0.48 L 0.48,-0.42 L 0.42,-0.3 L 0.3,-0.24 L 0.18,-0.12 L 0.12,-0.06 L 0,0"
           id="path5917"
           style="fill:#fff500;fill-opacity:1;fill-rule:evenodd;stroke:none" />
      </g>
      <g
         transform="matrix(0,12.542336,12.542336,0,503.7947,2047.9192)"
         id="g5919"
         style="fill:#fff500;fill-opacity:1">
        <path
           d="M 0,0 L -0.12,-0.3 L -0.3,-0.66 C -1.204,-2.468 -2.2,-4.23 -3.06,-6.06 L -3.3,-6.42 L -3.48,-6.78 L -3.54,-6.9 L -3.6,-7.02 L -3.6,-7.14 L -3.66,-7.2 L -3.66,-7.5 L -3.72,-7.56 L -3.72,-7.68 L -3.66,-7.74 L -3.66,-7.92 L -3.6,-7.92 L -3.54,-7.98 L -3.54,-8.04 L -3.42,-8.16 L -3.06,-8.16 L -3,-8.1 L -2.94,-8.04 L -2.88,-8.04 L -2.76,-7.92 L -2.7,-7.92 L -2.7,-7.8 L -2.58,-7.68 L -2.52,-7.62 L -2.34,-7.14 L -2.1,-6.72 L -1.92,-6.24 L -1.68,-5.76 L -1.5,-5.34 L -1.32,-4.86 L -1.08,-4.38 C -0.644,-3.279 -0.183,-2.316 0.24,-1.2 L 0.6,-0.24 L 0,0"
           id="path5921"
           style="fill:#fff500;fill-opacity:1;fill-rule:evenodd;stroke:none" />
      </g>
      <g
         transform="matrix(0,12.542336,12.542336,0,497.7745,2059.96)"
         id="g5923"
         style="fill:#fff500;fill-opacity:1">
        <path
           d="M 0,0 L -0.24,-0.6 C -0.677,-1.546 -1.014,-2.529 -1.44,-3.48 L -1.56,-3.84 L -1.68,-4.14 L -1.8,-4.44 L -1.92,-4.8 L -2.04,-5.1 L -2.04,-5.52 L -1.98,-5.58 L -1.92,-5.64 L -1.92,-5.7 L -1.86,-5.7 L -1.8,-5.76 L -1.44,-5.76 L -1.44,-5.7 L -1.38,-5.7 L -1.32,-5.64 L -1.32,-5.58 L -1.26,-5.58 L -1.2,-5.52 L -1.2,-5.46 L -1.02,-5.28 L -0.9,-4.98 L -0.78,-4.68 L -0.42,-3.78 L -0.3,-3.48 C -0.106,-2.673 0.232,-1.74 0.42,-0.9 L 0.54,-0.54 L 0.6,-0.24 L 0,0"
           id="path5925"
           style="fill:#fff500;fill-opacity:1;fill-rule:evenodd;stroke:none" />
      </g>
      <g
         transform="matrix(0,12.542336,12.542336,0,493.25977,2071.2481)"
         id="g5927"
         style="fill:#fff500;fill-opacity:1">
        <path
           d="M 0,0 L -0.06,-0.3 L -0.18,-0.6 C -0.333,-1.347 -0.72,-2.205 -0.84,-2.94 L -0.96,-3.18 L -1.02,-3.48 L -1.08,-3.72 L -1.2,-3.96 L -1.26,-4.2 L -1.32,-4.38 L -1.32,-4.62 L -1.26,-4.68 L -1.26,-4.8 L -1.2,-4.8 L -1.2,-4.86 L -1.14,-4.92 L -0.96,-4.92 L -0.9,-4.86 L -0.84,-4.86 L -0.78,-4.8 L -0.78,-4.74 L -0.72,-4.68 L -0.66,-4.62 L -0.66,-4.56 L -0.6,-4.44 L -0.54,-4.2 L -0.48,-3.9 C -0.224,-2.833 0.112,-1.792 0.36,-0.72 L 0.42,-0.42 L 0.48,-0.18 L 0,0"
           id="path5929"
           style="fill:#fff500;fill-opacity:1;fill-rule:evenodd;stroke:none" />
      </g>
      <g
         transform="matrix(0,12.542336,12.542336,0,489.49693,2081.7836)"
         id="g5931"
         style="fill:#fff500;fill-opacity:1">
        <path
           d="M 0,0 L -0.12,-0.3 L -0.18,-0.6 C -0.486,-2.065 -0.912,-3.568 -1.2,-5.04 L -1.2,-5.4 L -1.14,-5.46 L -1.14,-5.52 L -1.02,-5.64 L -0.96,-5.64 L -0.9,-5.7 L -0.66,-5.7 L -0.6,-5.64 L -0.54,-5.58 L -0.48,-5.58 L -0.48,-5.52 L -0.42,-5.46 L -0.42,-5.4 L -0.36,-5.34 L -0.36,-5.28 L -0.3,-5.16 L -0.24,-5.1 L -0.18,-4.86 L -0.18,-4.62 L -0.06,-4.02 L 0,-3.72 C 0.248,-2.672 0.244,-1.784 0.48,-0.72 L 0.48,-0.42 L 0.54,-0.12 L 0.42,-0.12 L 0.24,-0.06 L 0.18,-0.06 L 0.12,0 L 0,0"
           id="path5933"
           style="fill:#fff500;fill-opacity:1;fill-rule:evenodd;stroke:none" />
      </g>
      <g
         transform="matrix(0,12.542336,12.542336,0,487.23956,2092.3191)"
         id="g5935"
         style="fill:#fff500;fill-opacity:1">
        <path
           d="M 0,0 L -0.06,-0.06 L -0.06,-0.12 C -0.25,-2.028 -0.568,-3.916 -0.78,-5.82 L -0.9,-6.78 L -0.96,-7.14 L -1.02,-7.44 L -1.02,-7.92 L -0.96,-7.98 L -0.96,-8.1 L -0.9,-8.16 L -0.9,-8.22 L -0.84,-8.28 L -0.78,-8.28 L -0.78,-8.34 L -0.72,-8.34 L -0.66,-8.4 L -0.36,-8.4 L -0.3,-8.34 L -0.24,-8.28 L -0.18,-8.28 L -0.18,-8.22 L -0.12,-8.16 L -0.06,-8.04 L 0,-7.98 L 0.06,-7.92 L 0.12,-7.44 L 0.18,-6.96 L 0.24,-6.42 L 0.3,-5.88 L 0.36,-5.34 L 0.42,-4.8 C 0.566,-3.441 0.71,-2.082 0.78,-0.72 L 0.78,-0.06 L 0.42,-0.06 L 0.36,0 L 0,0"
           id="path5937"
           style="fill:#fff500;fill-opacity:1;fill-rule:evenodd;stroke:none" />
      </g>
      <g
         transform="matrix(0,12.542336,12.542336,0,329.95922,2115.6487)"
         id="g5939"
         style="fill:#fff500;fill-opacity:1">
        <path
           d="M 0,0 L -0.12,0 C -0.426,-0.008 -0.198,0.006 -0.54,0.12 L -0.66,0.18 L -0.66,0.24 L -0.72,0.24 L -0.78,0.3 L -0.84,0.36 C -1.138,0.635 -0.782,0.385 -1.08,0.66 L -1.08,0.72 L -1.14,0.78 C -1.226,0.999 -1.261,1.018 -1.32,1.26 L -1.38,1.44 L -1.38,1.74 C -1.243,4.865 -0.984,8.033 -0.78,11.16 L -0.72,11.82 L -0.72,12.48 L 0.54,12.48 L 0.54,11.88 L 0.6,11.22 C 0.799,8.001 1.139,4.787 1.14,1.56 L 1.14,1.38 L 1.08,1.2 C 0.98,1 0.88,0.8 0.78,0.6 L 0.78,0.54 L 0.72,0.48 C 0.422,0.204 0.778,0.456 0.48,0.18 L 0.42,0.18 L 0.36,0.12 L 0.36,0.06 L 0.3,0.06 L 0.24,0 L 0,0"
           id="path5941"
           style="fill:#fff500;fill-opacity:1;fill-rule:evenodd;stroke:none" />
      </g>
    </g>
    <g
       transform="matrix(0,-1.25,-1.25,0,2993.1493,1324.8434)"
       id="g3677">
      <g
         transform="matrix(0,12.542336,12.542336,0,884.58085,2141.9868)"
         id="g5663"
         style="fill:#fff500;fill-opacity:1">
        <path
           d="M 0,0 L 0.12,0 L 0.24,-0.12 L 0.24,-0.18 L 0.3,-0.24 L 0.3,-0.3 L 0.36,-0.36 L 0.36,-0.78 L 0.42,-0.9 L 0.42,-1.56 L 0.36,-1.86 L 0.36,-2.52 L 0.3,-2.88 L 0.24,-3.24 C 0.243,-4.291 0.015,-5.324 -0.12,-6.36 L -0.18,-6.9 L -0.24,-7.38 C -0.382,-7.955 -0.577,-9.178 -0.6,-9.78 L -0.66,-9.96 L -0.66,-10.2 L -1.32,-10.2 L -1.32,-9.84 L -1.26,-9.42 C -1.107,-6.848 -0.862,-4.187 -0.72,-1.62 L -0.66,-1.14 L -0.6,-0.72 L -0.6,-0.54 L -0.54,-0.48 L -0.54,-0.42 L -0.42,-0.3 L -0.42,-0.24 L -0.3,-0.12 L -0.24,-0.12 L -0.18,-0.06 L -0.12,-0.06 L -0.06,0 L 0,0"
           id="path5665"
           style="fill:#fff500;fill-opacity:1;fill-rule:evenodd;stroke:none" />
      </g>
      <g
         transform="matrix(0,12.542336,12.542336,0,852.22085,2157.0381)"
         id="g5671"
         style="fill:#fff500;fill-opacity:1">
        <path
           d="M 0,0 L 0.06,0 L 0.12,-0.06 L 0.18,-0.12 L 0.24,-0.24 L 0.24,-1.02 L 0.18,-1.32 L 0.18,-1.56 L 0,-2.46 C -0.279,-3.962 -0.625,-5.633 -1.08,-7.08 L -1.14,-7.44 L -1.2,-7.62 L -1.62,-7.62 L -1.56,-7.32 L -1.5,-7.02 C -1.27,-5.52 -1.064,-4.02 -0.84,-2.52 L -0.78,-2.28 L -0.78,-1.92 L -0.72,-1.68 L -0.72,-1.5 L -0.6,-1.02 L -0.54,-0.84 L -0.48,-0.66 L -0.48,-0.54 L -0.42,-0.48 L -0.42,-0.36 L -0.36,-0.3 L -0.3,-0.24 L -0.3,-0.18 L -0.18,-0.06 L -0.12,0 L 0,0"
           id="path5673"
           style="fill:#fff500;fill-opacity:1;fill-rule:evenodd;stroke:none" />
      </g>
      <g
         transform="matrix(0,12.542336,12.542336,0,833.40834,2172.0878)"
         id="g5683"
         style="fill:#fff500;fill-opacity:1">
        <path
           d="M 0,0 L 0.12,0 L 0.12,-0.06 L 0.18,-0.12 C 0.215,-0.728 0.093,-0.913 -0.06,-1.5 L -0.12,-1.8 L -0.24,-2.1 C -0.621,-3.31 -1.099,-4.616 -1.44,-5.82 L -1.5,-6 L -1.56,-6.12 L -2.1,-6.12 L -2.04,-6 L -1.92,-5.52 L -1.86,-5.22 L -1.8,-4.86 L -1.68,-4.5 L -1.62,-4.08 L -1.5,-3.72 L -1.44,-3.3 C -1.17,-2.53 -1.202,-2.065 -0.9,-1.32 L -0.9,-1.14 L -0.84,-1.02 L -0.78,-0.84 L -0.72,-0.72 L -0.66,-0.66 L -0.66,-0.54 L -0.54,-0.42 L -0.54,-0.3 L -0.48,-0.24 C -0.202,0.073 -0.323,-0.157 -0.18,0 L -0.12,0.06 L 0,0.06 L 0,0"
           id="path5685"
           style="fill:#fff500;fill-opacity:1;fill-rule:evenodd;stroke:none" />
      </g>
      <g
         transform="matrix(0,12.542336,12.542336,0,899.63216,1957.6144)"
         id="g5799"
         style="fill:#fff500;fill-opacity:1">
        <path
           d="M 0,0 L -0.06,0 L -0.18,-0.12 L -0.24,-0.18 L -0.24,-0.24 L -0.3,-0.3 L -0.3,-0.36 L -0.36,-0.42 L -0.36,-0.66 C -0.381,-1 -0.322,-1.311 -0.18,-1.62 L -0.12,-1.86 L 6.06,-11.4 L 7.2,-11.4 L 1.68,-0.96 L 1.62,-0.84 C 1.377,-0.574 1.124,-0.276 0.78,-0.12 L 0.66,-0.06 L 0.6,0 L 0.48,0 L 0.42,0.06 L 0.06,0.06 L 0,0"
           id="path5801"
           style="fill:#fff500;fill-opacity:1;fill-rule:evenodd;stroke:none" />
      </g>
      <g
         transform="matrix(0,12.542336,12.542336,0,884.58085,2085.5464)"
         id="g5803"
         style="fill:#fff500;fill-opacity:1">
        <path
           d="M 0,0 L -0.06,0 L -0.12,-0.06 L -0.18,-0.06 L -0.24,-0.12 L -0.24,-0.18 L -0.3,-0.18 L -0.3,-0.24 L -0.36,-0.3 L -0.36,-0.48 L -0.42,-0.54 L -0.42,-1.5 L -0.36,-2.04 L -0.3,-2.64 L -0.24,-3.18 C 0.086,-5.146 0.369,-7.146 0.66,-9.12 L 0.78,-9.66 L 0.84,-10.2 L 1.38,-10.2 L 1.38,-9.66 L 1.32,-9.06 C 1.225,-7.159 1.088,-5.316 0.96,-3.42 L 0.84,-2.22 L 0.78,-1.62 L 0.66,-1.02 L 0.6,-0.48 L 0.6,-0.42 L 0.54,-0.36 L 0.54,-0.3 L 0.48,-0.24 L 0.48,-0.18 L 0.42,-0.12 L 0.36,-0.06 L 0.24,-0.06 L 0.24,0 L 0,0"
           id="path5805"
           style="fill:#fff500;fill-opacity:1;fill-rule:evenodd;stroke:none" />
      </g>
      <g
         transform="matrix(0,12.542336,12.542336,0,865.01479,2011.7974)"
         id="g5807"
         style="fill:#fff500;fill-opacity:1">
        <path
           d="M 0,0 L -0.06,-0.06 L -0.18,-0.06 L -0.18,-0.12 L -0.24,-0.12 L -0.3,-0.18 L -0.3,-0.24 L -0.36,-0.3 L -0.36,-0.36 L -0.42,-0.48 L -0.42,-0.66 L -0.36,-0.72 L -0.36,-0.9 L -0.3,-1.08 L -0.3,-1.32 L -0.06,-1.74 L 0.12,-2.22 C 0.924,-4.103 1.923,-5.9 2.82,-7.74 L 3.06,-8.22 L 3.3,-8.64 L 4.08,-8.64 L 1.08,-1.38 L 0.96,-1.2 L 0.84,-1.02 L 0.72,-0.78 L 0.6,-0.6 L 0.54,-0.48 L 0.48,-0.42 L 0.42,-0.3 L 0.3,-0.24 L 0.12,-0.06 L 0,-0.06 L 0,0"
           id="path5809"
           style="fill:#fff500;fill-opacity:1;fill-rule:evenodd;stroke:none" />
      </g>
      <g
         transform="matrix(0,12.542336,12.542336,0,852.22085,2071.2481)"
         id="g5811"
         style="fill:#fff500;fill-opacity:1">
        <path
           d="M 0,0 L -0.06,0 L -0.12,-0.06 L -0.18,-0.06 L -0.18,-0.12 L -0.24,-0.18 L -0.24,-0.24 L -0.3,-0.3 L -0.3,-0.54 L -0.36,-0.66 L -0.3,-0.72 C -0.053,-2.86 0.743,-5.302 1.2,-7.44 L 1.26,-7.62 L 1.68,-7.62 L 1.62,-7.32 L 1.56,-6.96 C 1.369,-5.698 1.258,-4.425 0.96,-3.18 L 0.84,-2.22 L 0.72,-1.8 L 0.6,-0.96 L 0.48,-0.66 L 0.48,-0.54 L 0.42,-0.42 L 0.42,-0.36 L 0.36,-0.3 L 0.36,-0.24 L 0.3,-0.18 L 0.3,-0.12 L 0.24,-0.12 L 0.24,-0.06 L 0.12,-0.06 L 0.12,0 L 0,0"
           id="path5813"
           style="fill:#fff500;fill-opacity:1;fill-rule:evenodd;stroke:none" />
      </g>
      <g
         transform="matrix(0,12.542336,12.542336,0,845.44874,2037.3838)"
         id="g5815"
         style="fill:#fff500;fill-opacity:1">
        <path
           d="M 0,0 L 0,-0.06 L -0.06,-0.06 L -0.06,-0.12 L -0.12,-0.12 L -0.12,-0.3 L -0.18,-0.36 L -0.18,-0.42 L -0.12,-0.48 L -0.12,-0.78 L -0.06,-0.84 L 0,-0.96 L 0,-1.08 L 0.06,-1.2 L 0.12,-1.38 L 0.18,-1.44 L 0.3,-1.8 C 0.801,-3.339 1.526,-4.864 2.04,-6.42 L 2.16,-6.72 L 2.28,-7.08 L 2.76,-7.08 L 2.64,-6.72 L 2.52,-6.3 C 2.15,-5.104 1.726,-4.044 1.38,-2.82 L 1.26,-2.4 L 1.14,-2.04 L 1.02,-1.62 L 0.9,-1.26 L 0.78,-0.84 L 0.66,-0.6 L 0.66,-0.48 L 0.6,-0.42 L 0.54,-0.36 L 0.54,-0.3 L 0.48,-0.24 L 0.42,-0.12 L 0.36,-0.12 L 0.36,-0.06 L 0.3,-0.06 L 0.24,0 L 0,0"
           id="path5817"
           style="fill:#fff500;fill-opacity:1;fill-rule:evenodd;stroke:none" />
      </g>
      <g
         transform="matrix(0,12.542336,12.542336,0,840.18045,1960.6246)"
         id="g5819"
         style="fill:#fff500;fill-opacity:1">
        <path
           d="M 0,0 L -0.06,0 L -0.06,-0.06 L -0.12,-0.06 L -0.12,-0.24 C -0.12,-0.34 -0.12,-0.44 -0.12,-0.54 L -0.06,-0.6 L -0.06,-0.72 L 0,-0.78 L 0.06,-0.9 L 0.12,-0.96 L 0.18,-1.14 L 0.42,-1.5 L 0.66,-1.86 C 1.682,-3.404 3.119,-5.077 4.32,-6.54 L 4.44,-6.66 L 5.46,-6.66 L 4.86,-5.82 C 4.01,-4.574 3.118,-3.357 2.28,-2.1 L 1.98,-1.68 L 1.68,-1.32 L 1.32,-0.9 L 1.02,-0.48 L 0.72,-0.12 L 0.6,-0.06 L 0.54,0 L 0.48,0 L 0.42,0.06 L 0.12,0.06 L 0,0"
           id="path5821"
           style="fill:#fff500;fill-opacity:1;fill-rule:evenodd;stroke:none" />
      </g>
      <g
         transform="matrix(0,12.542336,12.542336,0,834.16025,2057.7023)"
         id="g5823"
         style="fill:#fff500;fill-opacity:1">
        <path
           d="M 0,0 L -0.06,0 L -0.06,-0.06 L -0.18,-0.06 L -0.24,-0.12 L -0.24,-0.18 L -0.3,-0.24 L -0.3,-0.66 L 1.44,-6.18 L 1.98,-6.18 L 0.54,-0.66 L 0.42,-0.42 L 0.42,-0.3 L 0.36,-0.24 L 0.36,-0.18 L 0.3,-0.12 L 0.24,-0.12 L 0.24,-0.06 L 0.12,-0.06 L 0.06,0 L 0,0"
           id="path5825"
           style="fill:#fff500;fill-opacity:1;fill-rule:evenodd;stroke:none" />
      </g>
      <g
         transform="matrix(0,12.542336,12.542336,0,794.27623,1964.3874)"
         id="g5827"
         style="fill:#fff500;fill-opacity:1">
        <path
           d="M 0,0 L 2.64,-3 L 3.72,-3 L 0.72,0.54 L 0.66,0.6 L 0.54,0.66 L 0.42,0.72 L 0.36,0.78 L -0.06,0.78 L -0.12,0.72 L -0.18,0.72 L -0.18,0.66 L -0.24,0.66 L -0.24,0.36 L -0.18,0.3 L -0.18,0.24 L -0.12,0.18 L -0.12,0.12 L -0.06,0.06 L 0,0"
           id="path5829"
           style="fill:#fff500;fill-opacity:1;fill-rule:evenodd;stroke:none" />
      </g>
      <g
         transform="matrix(0,12.542336,12.542336,0,780.73038,1937.2959)"
         id="g5839"
         style="fill:#fff500;fill-opacity:1">
        <path
           d="M 0,0 L 0,-0.06 L -0.06,-0.06 L -0.06,-0.12 L -0.12,-0.18 L -0.12,-0.3 L -0.06,-0.36 L -0.06,-0.42 L 0,-0.48 L 0.12,-0.6 L 0.24,-0.72 L 0.3,-0.78 L 0.42,-0.84 L 0.48,-0.9 L 4.5,-4.08 L 4.5,-3.3 L 1.14,-0.42 L 0.78,-0.18 L 0.72,-0.12 L 0.6,-0.06 L 0.54,-0.06 L 0.48,0 L 0.42,0 L 0.36,0.06 L 0.06,0.06 L 0.06,0 L 0,0"
           id="path5841"
           style="fill:#fff500;fill-opacity:1;fill-rule:evenodd;stroke:none" />
      </g>
      <g
         transform="matrix(0,12.542336,12.542336,0,782.98775,1961.3771)"
         id="g5843"
         style="fill:#fff500;fill-opacity:1">
        <path
           d="M 0,0 L -0.06,-0.06 L -0.06,-0.12 L -0.12,-0.12 L -0.12,-0.24 L -0.18,-0.24 L -0.18,-0.42 L -0.12,-0.42 L -0.12,-0.54 C 0.208,-0.972 0.25,-0.844 0.42,-1.14 L 0.6,-1.32 L 0.72,-1.44 C 1.124,-1.799 1.476,-2.194 1.92,-2.52 L 2.22,-2.82 L 2.58,-3.06 L 2.58,-2.04 L 2.52,-1.98 L 2.4,-1.92 L 2.34,-1.86 L 2.22,-1.8 L 2.1,-1.62 L 1.92,-1.44 L 1.56,-1.08 L 1.2,-0.78 L 1.08,-0.6 L 0.9,-0.48 L 0.84,-0.36 L 0.72,-0.3 L 0.6,-0.18 L 0.48,-0.18 L 0.36,-0.06 L 0.3,-0.06 L 0.24,0 L 0,0"
           id="path5845"
           style="fill:#fff500;fill-opacity:1;fill-rule:evenodd;stroke:none" />
      </g>
      <g
         transform="matrix(0,12.542336,12.542336,0,941.0215,2114.1432)"
         id="g5943"
         style="fill:#fff500;fill-opacity:1">
        <path
           d="M 0,0 L -0.18,-0.06 C -1.839,-0.453 -0.98,-6.431 -0.96,-7.56 L -0.54,-14.7 L 0.54,-14.7 L 1.08,-6.48 C 1.088,-5.433 1.698,-0.41 0.12,-0.06 L 0,0"
           id="path5945"
           style="fill:#fff500;fill-opacity:1;fill-rule:evenodd;stroke:none" />
      </g>
    </g>
    <g
       transform="matrix(0,-22.371597,-22.371597,0,31132.079,18123.808)"
       id="g253">
      <g
         clip-path="url(#clipPath257)"
         id="g255">
        <g
           id="g261">
          <g
             clip-path="url(#clipPath265)"
             id="g263">
            <g
               id="g269">
              <g
                 clip-path="url(#clipPath273)"
                 id="g271">
                <g
                   id="g277">
                  <g
                     clip-path="url(#clipPath281)"
                     id="g279">
                    <g
                       transform="translate(778.119,1375.943)"
                       id="g285">
                      <path
                         d="M 0,0 C 0,4.029 3.285,7.298 7.336,7.298 L 15.426,7.298 L 15.426,-7.298 L 7.336,-7.298 C 3.285,-7.298 0,-4.029 0,0"
                         id="path287"
                         style="fill:#ffffff;fill-opacity:1;fill-rule:evenodd;stroke:none" />
                    </g>
                    <g
                       transform="translate(793.618,1368.572)"
                       id="g289">
                      <path
                         d="M 0,0 L -8.163,0 C -12.255,0 -15.573,3.301 -15.573,7.371 C -15.573,11.442 -12.255,14.742 -8.163,14.742 L 0,14.742 L 0,0 z M -8.163,0.275 C -12.104,0.275 -15.298,3.454 -15.298,7.371 C -15.298,11.289 -12.104,14.468 -8.163,14.468 L -0.275,14.468 L -0.275,0.275 L -8.163,0.275"
                         id="path291"
                         style="fill:#231f20;fill-opacity:1;fill-rule:evenodd;stroke:none" />
                    </g>
                    <g
                       transform="translate(778.849,1375.667)"
                       id="g293">
                      <path
                         d="M 0,0 C -0.116,0.065 -0.212,0.161 -0.278,0.276 C -0.212,0.391 -0.117,0.486 -0.002,0.551 C 0.014,0.444 0.06,0.346 0.146,0.275 C 0.063,0.204 0.017,0.107 0,0 z M 0.732,1.561 C 0.758,1.691 0.82,1.811 0.908,1.909 C 1.038,1.882 1.158,1.821 1.255,1.731 C 1.159,1.683 1.08,1.61 1.039,1.507 C 0.945,1.566 0.839,1.579 0.732,1.561 z M 2.441,1.345 C 2.573,1.361 2.707,1.34 2.828,1.285 C 2.842,1.154 2.821,1.02 2.766,0.9 C 2.69,0.978 2.596,1.03 2.484,1.037 C 2.51,1.143 2.49,1.248 2.441,1.345 z M 2.765,-0.346 C 2.821,-0.467 2.842,-0.601 2.828,-0.733 C 2.708,-0.788 2.574,-0.808 2.443,-0.793 C 2.493,-0.697 2.514,-0.591 2.486,-0.483 C 2.595,-0.474 2.688,-0.423 2.765,-0.346 z M 1.256,-1.178 C 1.159,-1.268 1.039,-1.33 0.908,-1.356 C 0.82,-1.259 0.758,-1.139 0.732,-1.009 C 0.84,-1.027 0.947,-1.014 1.041,-0.954 C 1.082,-1.055 1.16,-1.128 1.256,-1.178 z M 0.985,0.277 C 0.985,0.527 1.188,0.73 1.439,0.73 C 1.69,0.73 1.893,0.527 1.893,0.277 C 1.893,0.026 1.69,-0.178 1.439,-0.178 C 1.188,-0.178 0.985,0.026 0.985,0.277 z M 14.127,7.006 L 14.127,1.439 C 13.9,1.646 13.668,1.848 13.421,2.032 C 12.484,2.734 11.177,2.665 10.261,3.374 C 9.46,3.993 9.25,5.042 8.51,5.623 C 7.671,6.28 6.518,6.322 5.661,6.941 C 5.969,6.984 6.285,7.006 6.605,7.006 L 14.127,7.006 z M 11.498,0.459 L 6.605,0.459 C 4.137,0.459 1.979,1.773 0.797,3.733 C 1.399,4.731 2.254,5.561 3.274,6.136 C 3.645,5.78 4.022,5.431 4.463,5.16 C 5.359,4.607 6.494,4.525 7.33,3.87 C 8.103,3.263 8.318,2.192 9.078,1.622 C 9.804,1.078 10.722,0.912 11.498,0.459"
                         id="path295"
                         style="fill:#00a650;fill-opacity:1;fill-rule:nonzero;stroke:none" />
                    </g>
                    <g
                       transform="translate(792.977,1375.76)"
                       id="g297">
                      <path
                         d="M 0,0 L 0,-6.547 L -7.522,-6.547 C -9.99,-6.547 -12.148,-5.234 -13.331,-3.273 C -12.148,-1.313 -9.99,0 -7.522,0 L 0,0 z M -4.346,-6.276 C -4.785,-6.276 -4.975,-5.88 -5.303,-5.88 C -5.69,-5.88 -5.877,-6.263 -6.252,-6.263 C -6.639,-6.263 -6.704,-5.959 -6.638,-5.762 C -6.638,-5.762 -6.607,-5.885 -6.457,-5.885 C -5.998,-5.885 -6.023,-4.903 -5.303,-4.903 C -4.926,-4.903 -4.627,-5.17 -4.404,-5.17 C -4.291,-5.17 -4.132,-5.085 -4.082,-4.94 C -3.939,-5.141 -4.027,-5.478 -4.245,-5.565 C -4.063,-5.635 -3.793,-5.698 -3.531,-5.617 C -3.708,-6.078 -4.008,-6.276 -4.344,-6.276 L -4.346,-6.276 z M -1.608,-2.53 C -1.78,-2.633 -1.608,-2.896 -1.608,-2.896 C -1.608,-2.896 -1.307,-2.578 -1.608,-2.53 z M -11.165,-4.158 C -10.939,-4.158 -10.742,-4.381 -10.723,-4.403 C -10.725,-4.414 -10.726,-4.425 -10.726,-4.437 C -10.726,-4.559 -10.627,-4.657 -10.505,-4.657 C -10.472,-4.657 -10.44,-4.65 -10.412,-4.637 C -9.333,-5.242 -9.176,-5.082 -8.41,-4.144 C -8.201,-3.888 -7.587,-3.808 -7.024,-3.808 C -6.153,-3.436 -6.254,-2.429 -5.399,-2.049 L -5.423,-2.489 C -5.435,-2.715 -5.299,-2.873 -5.187,-2.949 C -5.082,-3.019 -4.939,-2.95 -4.977,-2.836 C -5.118,-2.785 -5.23,-2.647 -5.222,-2.495 L -5.163,-1.401 C -5.379,-1.184 -5.692,-1.23 -5.855,-1.611 L -6.019,-1.611 L -6.019,-1.872 C -6.314,-1.964 -6.578,-1.968 -6.756,-1.881 C -6.756,-1.674 -6.508,-1.439 -6.508,-1.439 C -6.482,-1.44 -6.46,-1.443 -6.439,-1.443 C -6.317,-1.443 -6.218,-1.344 -6.218,-1.222 C -6.218,-1.205 -6.22,-1.188 -6.223,-1.172 C -6.026,-1.048 -5.606,-1.068 -5.138,-0.748 L -4.842,-0.99 L -4.544,-1.879 C -3.502,-1.904 -3.261,-3.101 -2.501,-3.285 C -2.501,-3.541 -2.425,-3.7 -2.182,-3.825 C -2.119,-3.857 -1.971,-3.842 -2.003,-3.681 C -2.255,-3.592 -2.299,-3.474 -2.299,-3.308 C -2.299,-2.877 -2.227,-2.529 -2.419,-2.471 C -2.743,-2.373 -2.54,-1.924 -2.54,-1.924 L -2.46,-2.034 C -2.461,-2.043 -2.461,-2.052 -2.461,-2.062 C -2.461,-2.145 -2.417,-2.213 -2.363,-2.213 C -2.309,-2.213 -2.265,-2.145 -2.265,-2.062 C -2.265,-1.979 -2.309,-1.911 -2.363,-1.911 C -2.367,-1.911 -2.37,-1.911 -2.373,-1.912 L -2.448,-1.809 C -2.448,-1.676 -2.344,-1.653 -2.295,-1.65 C -2.295,-1.702 -2.251,-1.742 -2.197,-1.742 C -2.143,-1.742 -2.1,-1.702 -2.1,-1.653 C -2.06,-1.655 -1.978,-1.678 -1.902,-1.773 L -1.294,-2.54 C -1.206,-2.651 -1.087,-2.873 -1.036,-2.971 C -0.869,-2.959 -0.649,-3.022 -0.493,-3.022 C -0.493,-3.022 -0.59,-3.248 -0.809,-3.34 C -0.971,-3.408 -1.072,-3.365 -1.151,-3.335 C -1.217,-3.377 -1.217,-3.551 -1.05,-3.571 C -0.984,-3.579 -0.906,-3.578 -0.816,-3.553 C -0.848,-3.851 -0.95,-4.271 -0.885,-4.918 C -1.036,-4.787 -1.146,-4.618 -1.226,-4.441 C -1.302,-4.763 -1.46,-5.158 -1.789,-5.357 C -1.868,-5.202 -1.92,-5.032 -1.953,-4.864 C -2.221,-5.172 -2.624,-5.293 -2.786,-5.558 C -2.881,-5.215 -2.855,-4.933 -2.779,-4.71 C -2.999,-4.818 -3.255,-4.984 -3.372,-5.213 C -3.512,-4.902 -3.592,-4.599 -3.637,-4.366 C -3.759,-4.439 -3.91,-4.546 -4.009,-4.677 C -4.019,-4.436 -4.086,-4.242 -4.136,-4.129 C -4.418,-4.109 -5.003,-4.031 -5.758,-4.746 C -6.478,-5.699 -7.024,-5.937 -7.992,-5.186 C -8.484,-5.186 -8.68,-5.268 -9.182,-5.522 C -9.231,-5.5 -9.467,-5.396 -9.755,-5.292 C -10.071,-5.178 -10.418,-5.093 -10.723,-5.093 C -10.723,-5.093 -10.722,-4.931 -10.894,-4.931 L -11.155,-4.931 C -11.247,-4.635 -11.25,-4.334 -11.165,-4.158 z M -4.809,-0.45 C -4.673,-0.312 -4.381,-0.311 -4.329,-0.312 C -4.319,-0.332 -4.306,-0.35 -4.289,-0.366 C -4.203,-0.453 -4.064,-0.453 -3.977,-0.366 C -3.965,-0.353 -3.954,-0.339 -3.944,-0.324 C -3.578,-0.448 -3.387,-0.691 -2.867,-0.788 L -2.867,-1.168 L -3.574,-2.07 C -3.756,-1.909 -3.968,-1.776 -4.238,-1.714 L -3.344,-1.234 C -3.344,-0.926 -3.599,-0.736 -3.98,-0.896 L -4.096,-0.78 L -4.286,-0.959 C -4.55,-0.825 -4.735,-0.646 -4.809,-0.45 z M -8.95,-1.864 L -8.95,-3.142 C -8.423,-3.142 -8.078,-2.751 -7.462,-2.751 C -7.059,-2.751 -6.806,-2.91 -6.684,-3.33 C -6.78,-3.435 -6.901,-3.529 -7.067,-3.607 C -7.607,-3.611 -7.977,-3.701 -8.245,-3.83 C -8.245,-3.83 -8.466,-3.539 -9.279,-3.539 C -9.279,-3.539 -9.226,-2.386 -9.377,-2.248 L -9.377,-2.066 L -9.637,-2.066 C -9.731,-1.782 -9.734,-1.518 -9.647,-1.329 C -9.415,-1.329 -9.205,-1.578 -9.205,-1.578 C -9.206,-1.603 -9.209,-1.624 -9.209,-1.647 C -9.209,-1.769 -9.11,-1.868 -8.988,-1.868 C -8.975,-1.868 -8.962,-1.866 -8.95,-1.864 z M -13.808,0.996 C -13.591,1.295 -13.215,1.407 -13.069,1.12 C -13.019,1.1 -12.96,1.12 -12.93,1.165 C -12.981,1.483 -12.612,1.613 -12.26,1.499 C -11.91,1.385 -11.687,1.062 -11.915,0.835 C -11.918,0.781 -11.881,0.731 -11.829,0.717 C -11.543,0.864 -11.304,0.552 -11.304,0.183 C -11.304,-0.186 -11.543,-0.497 -11.829,-0.35 C -11.881,-0.364 -11.918,-0.415 -11.915,-0.469 C -11.687,-0.695 -11.91,-1.019 -12.26,-1.133 C -12.612,-1.247 -12.981,-1.116 -12.93,-0.798 C -12.96,-0.753 -13.019,-0.734 -13.069,-0.754 C -13.215,-1.04 -13.591,-0.928 -13.808,-0.63 C -14.025,-0.332 -14.014,0.06 -13.697,0.11 C -13.662,0.152 -13.662,0.214 -13.697,0.256 C -14.014,0.306 -14.025,0.698 -13.808,0.996 z M -12.688,-0.527 C -13.081,-0.527 -13.399,-0.209 -13.399,0.184 C -13.399,0.576 -13.081,0.894 -12.688,0.894 C -12.296,0.894 -11.978,0.576 -11.978,0.184 C -11.978,-0.209 -12.296,-0.527 -12.688,-0.527"
                         id="path299"
                         style="fill:#ed1c24;fill-opacity:1;fill-rule:evenodd;stroke:none" />
                    </g>
                  </g>
                </g>
              </g>
            </g>
          </g>
        </g>
      </g>
    </g>
  </g>
</svg>
